<svg xmlns="http://www.w3.org/2000/svg" width="394" height="265" viewBox="0 0 394 265" fill="none">
<path fill-rule="evenodd" clip-rule="evenodd" d="M177.356 44.8197C176.317 45.117 172.622 46.1669 169.255 47.0978C127.636 58.383 91.3552 81.3616 72.6801 108.384C59.3714 127.662 52.9235 148.853 54.835 167.25C58.1814 200.06 85.9857 223.989 133.135 234.748C159.096 240.669 182.231 241.07 213.876 236.149C252.458 230.149 280.39 219.574 307.303 200.753C338.118 179.16 356.315 150.854 357.648 122.401C357.929 115.922 355.802 103.994 353.194 97.6851C338.803 63.0018 301.045 43.8721 249.108 44.9702C238.385 45.2119 211.407 49.2715 199.173 52.3961C178.423 57.7881 160.223 64.7526 141.894 74.3775C123.998 83.7315 114.477 90.8324 100.955 104.863C92.2633 113.804 94.5279 113.587 106.467 104.209C119.506 94.0488 126.779 89.0628 136.988 83.3409C154.415 73.5846 172.076 66.1608 191.221 60.4752C205.584 56.2123 231.41 51.7209 244.32 51.1995C283.867 49.659 315.15 59.7619 333.805 80.097C350.421 98.1765 354.972 120.026 346.779 142.642C343.788 150.833 340.502 156.693 333.579 166.106C323.982 179.254 312.98 189.429 298.393 198.744C272.976 215.024 246.141 224.757 211.914 230.079C177.688 235.402 149.027 233.831 119.258 224.3C96.6089 217.049 80.6784 206.384 70.9363 192.049C65.2203 183.591 63.7494 179.753 62.1343 169.367C60.5029 158.44 61.121 152.384 65.1941 139.424C77.8785 99.1718 116.344 68.8678 175.836 52.4418C193.871 47.4719 224.174 43.0312 236.252 43.6576C238.568 43.7727 240.443 43.6169 240.402 43.3517C240.247 42.3573 234.268 40.443 229.359 39.7881C220.991 38.6526 209.94 39.3527 193.962 41.9052C185.909 43.2255 178.479 44.5846 177.364 44.8259L177.356 44.8197Z" fill="black"/>
<path fill-rule="evenodd" clip-rule="evenodd" d="M325.138 0.764865C326.161 1.27886 327.111 2.11995 327.804 3.22271C330.908 8.13839 330.652 14.0774 326.818 29.1562C324.076 39.7913 322.545 43.7911 320.865 44.5247C320.428 44.7069 319.953 45.1836 319.841 45.5153C319.548 46.4312 318.999 46.3237 318.818 45.3331C318.706 44.8938 318.38 41.7024 318.05 38.2539C317.719 34.7681 316.989 29.0861 316.37 25.6003C314.946 17.2361 314.615 10.9654 315.458 7.15247C316.775 1.20879 320.754 -1.4313 325.138 0.769542V0.764865ZM320.754 3.62455C318.962 4.61517 317.612 9.89534 317.975 14.6288C318.157 16.9745 319.218 25.119 320.716 35.7167C320.972 37.4783 321.047 37.2213 323.239 28.3805C326.124 16.6053 326.38 15.3951 326.417 11.8766C326.492 5.67589 323.932 1.93771 320.754 3.62455Z" fill="#22c55e"/>
<path fill-rule="evenodd" clip-rule="evenodd" d="M369.195 8.90473C370.768 9.60096 372.96 12.1709 373.249 13.6709C373.905 17.3389 372.374 20.0538 365.761 26.8759C362.401 30.3991 358.017 35.4971 354.108 40.5576C347.862 48.6647 346.438 50.202 345.303 50.202C344.353 50.1647 343.441 49.2862 343.441 48.3703C343.441 47.2722 349.649 28.4927 351.734 23.2452C354.657 15.9091 358.236 10.9934 361.889 9.26915C363.969 8.27854 367.404 8.09635 369.195 8.90473ZM363.35 12.3905C358.929 14.4091 355.239 21.4883 349.249 39.2025C348.262 42.137 348.262 42.2491 349.03 41.2211C353.047 35.7914 358.273 29.6328 362.913 24.8994C369.926 17.7455 371.094 15.6194 369.344 13.3812C367.958 11.5822 365.835 11.2551 363.355 12.3905H363.35Z" fill="#22c55e"/>
<path fill-rule="evenodd" clip-rule="evenodd" d="M388.006 49.987C390.892 50.5758 392.721 51.8187 393.558 53.7299C394.401 55.7111 394.033 57.6176 392.497 59.0848C390.268 61.1408 387.639 61.9818 378.433 63.5986C368.972 65.2854 366.668 66.0565 358.305 70.4582C356.988 71.1544 356.844 71.1544 356.295 70.603C355.709 70.0142 355.709 69.9068 356.439 68.6218C357.282 67.1919 369.186 56.627 372.77 54.1691C375.767 52.1131 379.052 50.6459 382.012 50.0244C384.972 49.403 385.335 49.4029 388.002 49.987H388.006ZM380.444 54.4635C379.201 54.9027 377.228 55.8933 376.06 56.6643C373.793 58.0942 368.935 61.9819 369.154 62.2015C369.191 62.2762 370.727 61.9819 372.514 61.58C374.301 61.1782 377.991 60.4445 380.695 59.9305C390.012 58.1689 393.298 55.384 388.039 53.6972C385.959 53.0383 383.511 53.2953 380.439 54.4682L380.444 54.4635Z" fill="#22c55e"/>
<path fill-rule="evenodd" clip-rule="evenodd" d="M72.61 264.38C71.5001 263.071 72.4636 243.868 74.0174 235.87C74.3149 234.337 74.6833 231.572 74.8345 229.782C75.1698 226.269 75.9443 224.736 77.1723 225.221C78.2822 225.669 78.2821 226.416 77.1344 235.685C76.4685 240.84 75.6137 251.865 75.3917 258.106C75.2453 261.395 74.9856 264.309 74.7637 264.571C74.2819 265.204 73.2051 265.132 72.6147 264.385L72.61 264.38Z" fill="#22c55e"/>
<path fill-rule="evenodd" clip-rule="evenodd" d="M35.6485 259.334C35.4266 259.11 35.2046 258.587 35.2046 258.249C35.2046 257.24 36.612 254.212 37.9485 252.346C38.6145 251.413 39.9511 249.209 40.9145 247.452C41.878 245.696 43.139 243.53 43.7341 242.597C44.3292 241.664 45.4768 239.755 46.327 238.298C49.1465 233.514 49.515 232.919 50.1809 232.171C51.3664 230.862 53.3689 231.348 53.3689 232.957C53.3689 233.295 52.2921 235.237 51.0311 237.255C48.4382 241.292 47.7674 242.373 45.7319 245.962C44.9904 247.309 43.3232 250.147 42.0622 252.313C40.7634 254.479 39.3559 256.983 38.8742 257.916C37.9107 259.672 36.5742 260.272 35.6485 259.334Z" fill="#22c55e"/>
<path fill-rule="evenodd" clip-rule="evenodd" d="M22.3772 230.448C21.6734 228.615 24.3419 226.04 32.98 220.285C35.946 218.304 40.1731 215.201 42.3598 213.373C45.1793 211.016 46.5867 210.083 47.1771 210.159C48.3248 210.307 48.4382 211.73 47.3614 212.773C45.4722 214.606 39.1293 219.647 36.3523 221.48C34.7559 222.565 32.1631 224.507 30.6045 225.816C25.1921 230.339 24.2663 231.01 23.4114 231.01C22.9675 231.01 22.4858 230.748 22.3724 230.448H22.3772Z" fill="#22c55e"/>
<path fill-rule="evenodd" clip-rule="evenodd" d="M55.5933 225.593C54.9274 224.769 58.6726 218.304 59.8581 218.304C60.968 218.304 61.6764 219.199 61.3788 220.247C61.2655 220.732 60.3397 222.227 59.3007 223.646C57.3737 226.188 56.4812 226.673 55.5933 225.588V225.593Z" fill="#22c55e"/>
<path fill-rule="evenodd" clip-rule="evenodd" d="M0.802936 205.413C-0.273885 204.628 -0.273848 203.171 0.840756 202.462C1.28471 202.124 3.17849 201.529 4.99209 201.115C6.84346 200.705 9.36554 200.105 10.5888 199.767C13.073 199.168 13.9231 199.32 14.2585 200.401C14.8158 202.195 13.2194 203.09 6.47514 204.661C4.43485 205.147 2.50789 205.632 2.21035 205.746C1.91281 205.894 1.28467 205.708 0.802936 205.408V205.413Z" fill="#22c55e"/>
<path fill-rule="evenodd" clip-rule="evenodd" d="M20.0063 199.62C19.4868 198.649 20.044 197.563 21.527 196.816C22.1221 196.478 26.0139 195.469 30.1275 194.536C34.2412 193.641 38.5815 192.632 39.7669 192.332C42.1378 191.77 42.8084 191.884 43.3988 192.965C43.7341 193.565 43.6585 193.86 43.139 194.383C42.4353 195.055 37.9108 196.288 31.4971 197.559C29.7544 197.93 26.9018 198.677 25.159 199.277C21.3382 200.548 20.5258 200.624 20.0063 199.615V199.62Z" fill="#22c55e"/>
</svg>