<svg xmlns="http://www.w3.org/2000/svg" width="427" height="182" viewBox="0 0 427 182" fill="none">
<path fill-rule="evenodd" clip-rule="evenodd" d="M363.631 181.656C361.583 180.978 360.999 180.082 360.995 178.242C361.09 175.297 364.71 171.771 375.516 164.25C381.122 160.245 382.652 158.823 380.865 158.934C356.761 161.18 346.101 160.624 331.54 156.503C310.779 150.506 290.743 138.352 272.013 120.166L261.489 109.948L247.215 116.599C231.946 123.867 223.018 125.991 209.261 126.071C195.343 126.096 174.484 120.936 161.176 114.343C153.4 110.363 142.45 101.664 136.93 94.8426L131.605 88.4422L124.68 91.9212C115.027 96.7703 104.419 98.9513 89.297 99.1801C61.67 99.6463 38.3296 88.2476 14.7019 62.9112C2.02281 49.1707 -2.20078 41.2961 1.9973 39.1872C3.57492 38.3947 5.20976 39.5492 10.0439 44.7394C23.6747 59.3079 30.3044 65.7059 39.6655 72.8415C61.4434 89.496 91.8021 93.4343 117.831 82.9875L126.075 79.767L124.648 75.3601C117.992 54.7764 117.493 42.2847 122.983 25.981C129.197 7.4879 144.096 -1.0512 157.973 5.90877C162.862 8.30856 168.87 18.7025 169.983 26.6832C172.106 41.9088 162.117 63.6207 146.386 77.8356L140.715 83.0453L143.297 86.3528C151.884 97.6787 163.186 105.011 181.109 110.86C200.599 117.227 220.719 116.982 238.678 110.07C247.083 106.903 254.848 101.428 253.413 99.6378C252.937 98.9562 249.674 93.4954 246.191 87.6269C233.596 65.6893 229.448 40.9658 235.673 24.5604C239.182 15.3131 243.841 9.4227 251.186 4.94591C267.24 -4.69272 284.743 1.88577 291.503 20.3079C299.735 42.461 292.975 73.2002 275.158 95.2948C272.327 98.8264 270.186 102.129 270.448 102.651C271.556 104.857 285.344 117.906 292.91 123.834C314.153 140.757 337.02 149.38 360.392 149.343C368.054 149.429 392.538 146.607 394.731 145.505C395.359 145.19 392.318 143.569 387.899 142.105C369.037 135.155 355.464 126.2 355.56 120.626C355.804 114.844 360.964 115.417 373.215 122.54C378.212 125.422 391.19 130.59 403.804 134.769C415.741 138.634 425.819 142.497 426.188 143.232C426.558 143.967 426.722 145.861 426.403 147.327C425.987 149.897 424.41 150.957 406.788 159.809C396.24 165.242 382.811 172.507 376.93 175.997C367.593 181.743 365.961 182.428 363.605 181.636L363.631 181.656ZM274.622 77.1957C283.944 60.4232 286.578 37.6677 280.67 24.0752C277.028 15.5237 273.033 12.0047 266.944 11.9157C258.225 11.8248 248.306 20.8767 245.81 31.3399C244.296 37.7597 244.587 49.8371 246.592 59.5961C248.293 67.4151 256.773 85.8943 261.091 90.8244L263.09 93.2363L266.808 88.8733C268.851 86.4071 272.415 81.2013 274.608 77.2024L274.622 77.1957ZM147.33 60.3159C153.992 51.8457 159.373 38.4931 159.298 30.7781C159.177 19.8045 152.699 12.1416 145.134 13.8486C137.469 15.5892 130.52 31.0524 130.282 46.811C130.142 54.3658 132.215 67.9253 134.11 71.9634C134.902 73.5411 141.563 67.7005 147.323 60.336L147.33 60.3159Z" fill="black"/>
</svg>