<svg xmlns="http://www.w3.org/2000/svg" width="427" height="183" viewBox="0 0 427 183" fill="none">
<path fill-rule="evenodd" clip-rule="evenodd" d="M63.0363 1.19482C65.0851 1.87354 65.6688 2.76908 65.6722 4.6092C65.5774 7.55358 61.9577 11.0799 51.1522 18.601C45.5459 22.6061 44.0162 24.0276 45.8026 23.9172C69.9067 21.6709 80.5668 22.2266 95.128 26.3481C115.889 32.3451 135.925 44.4995 154.655 62.6853L165.179 72.9035L179.452 66.2525C194.721 58.9841 203.65 56.8596 217.407 56.7805C231.325 56.7547 252.184 61.9152 265.492 68.5082C273.268 72.4884 284.218 81.1869 289.738 88.0085L295.062 94.4089L301.988 90.9299C311.641 86.0808 322.249 83.8998 337.371 83.671C364.998 83.2047 388.338 94.6035 411.966 119.94C424.645 133.68 428.869 141.555 424.67 143.664C423.093 144.456 421.458 143.302 416.624 138.112C402.993 123.543 396.363 117.145 387.002 110.01C365.224 93.3551 334.866 89.4168 308.837 99.8636L300.592 103.084L302.019 107.491C308.676 128.075 309.175 140.566 303.685 156.87C297.471 175.363 282.572 183.902 268.695 176.942C263.806 174.543 257.797 164.149 256.685 156.168C254.562 140.942 264.551 119.23 280.282 105.015L285.952 99.8057L283.37 96.4983C274.784 85.1724 263.482 77.8396 245.559 71.9912C226.069 65.6238 205.949 65.8687 187.989 72.7808C179.584 75.948 171.82 81.4227 173.255 83.2133C173.731 83.8949 176.993 89.3557 180.477 95.2242C193.071 117.162 197.22 141.885 190.995 158.291C187.486 167.538 182.827 173.428 175.481 177.905C159.427 187.544 141.924 180.965 135.165 162.543C126.933 140.39 133.693 109.651 151.51 87.5563C154.34 84.0247 156.482 80.7218 156.22 80.2004C155.112 77.9943 141.323 64.945 133.758 59.0172C112.515 42.0941 89.6478 33.4713 66.2755 33.5081C58.6139 33.422 34.1296 36.2443 31.937 37.3458C31.3086 37.6615 34.3495 39.2818 38.7685 40.7457C57.6307 47.6964 71.2039 56.6511 71.1074 62.2251C70.8641 68.0069 65.7041 67.4343 53.4524 60.3108C48.4553 57.4294 35.4782 52.2609 22.8641 48.0821C10.9264 44.2167 0.848741 40.3545 0.479334 39.6192C0.109928 38.8838 -0.0541299 36.9904 0.264276 35.5244C0.680976 32.9541 2.25804 31.894 19.8793 23.042C30.4277 17.6091 43.8565 10.3441 49.7381 6.85362C59.0749 1.10846 60.7063 0.4229 63.063 1.2148L63.0363 1.19482ZM152.046 105.655C142.723 122.428 140.09 145.183 145.997 158.776C149.64 167.327 153.635 170.846 159.724 170.935C168.443 171.026 178.362 161.974 180.858 151.511C182.372 145.091 182.081 133.014 180.075 123.255C178.374 115.436 169.895 96.9568 165.577 92.0266L163.578 89.6148L159.859 93.9778C157.817 96.444 154.253 101.65 152.059 105.649L152.046 105.655ZM279.338 122.535C272.676 131.005 267.295 144.358 267.37 152.073C267.491 163.047 273.969 170.709 281.533 169.003C289.198 167.262 296.148 151.799 296.386 136.04C296.525 128.485 294.452 114.926 292.558 110.888C291.765 109.31 285.105 115.151 279.345 122.515L279.338 122.535Z" fill="black"/>
</svg>