<svg xmlns="http://www.w3.org/2000/svg" width="35" height="35" viewBox="0 0 20 18" fill="black">
<path d="M6.39407 5.63038L6.71642 5.81329L7.03878 5.63038C9.07619 4.47446 11.5404 4.81607 13.1086 6.40764L14.535 5.37423L14.88 5.85042L15.225 6.32661C15.225 6.32661 10.3368 9.86824 10.3331 9.8709C10.0391 10.0839 9.93942 10.5211 10.1633 10.8213C10.3536 11.0764 10.7231 11.1608 11.0065 11.0087L11.0103 11.0067L13.9575 9.45258C14.4572 9.18506 15.0212 9.143 15.4276 9.14167C15.4547 9.14159 15.4811 9.14167 15.5067 9.1419C16.8119 9.15296 18.054 8.65462 19.0066 7.74035L19.0205 7.72737L20.0018 6.84482V0.269531L15.9119 1.31035C14.8428 1.58241 13.7432 1.76607 12.6436 1.8562L9.54752 2.10991C8.65301 2.11583 7.7875 2.4389 7.10766 3.02113L5 5.0877C5.47999 5.19684 5.949 5.37784 6.39407 5.63038Z" fill="white"/>
<path d="M13.2503 11.1547L11.5588 12.0466C11.2877 12.1917 10.9921 12.2612 10.6989 12.2612C10.1322 12.2612 9.57423 12.0015 9.21887 11.5251C8.91513 11.1179 8.79498 10.6179 8.8804 10.1172C8.96523 9.62015 9.24098 9.191 9.6573 8.90753L12.1395 7.10914C10.9383 6.0045 9.12776 5.79689 7.61738 6.65389L6.71468 7.16606L5.81197 6.65389C5.21183 6.31338 4.555 6.14194 3.89523 6.14194C3.34522 6.14194 2.79325 6.26108 2.27026 6.50068C1.11995 7.02768 0.319251 8.0418 0.0734931 9.28297C-0.194257 10.6351 0.28095 12.0421 1.31365 12.955L6.71472 17.7293L12.1157 12.955C12.6425 12.4894 13.0364 11.8547 13.2503 11.1547Z" fill="white"/>
</svg>