<svg xmlns="http://www.w3.org/2000/svg" width="127" height="28" viewBox="0 0 127 28" fill="none">
<path d="M37.1489 18.687C37.1489 19.2982 37.0234 19.7679 36.7725 20.096C36.5281 20.4241 36.1195 20.5882 35.5469 20.5882C35.0064 20.5882 34.6236 20.4241 34.3984 20.096C34.1797 19.7679 34.0703 19.2982 34.0703 18.687V8.48617C34.0703 7.87495 34.1797 7.40528 34.3984 7.07715C34.6236 6.74902 35.0064 6.58496 35.5469 6.58496C36.1195 6.58496 36.5281 6.74902 36.7725 7.07715C37.0234 7.40528 37.1489 7.87495 37.1489 8.48617V18.687Z" fill="#8B888A"/>
<path d="M38.0834 15.7243C38.0834 15.0423 38.1928 14.399 38.4116 13.7942C38.6368 13.1829 38.9713 12.649 39.4152 12.1921C39.8656 11.7353 40.4254 11.3718 41.0945 11.1016C41.77 10.8313 42.5614 10.6963 43.4686 10.6963C44.3372 10.6963 45.106 10.8217 45.7751 11.0726C46.4442 11.3236 47.0072 11.6742 47.4639 12.1246C47.9207 12.5685 48.2682 13.0993 48.5063 13.7169C48.7443 14.3281 48.8634 14.9973 48.8634 15.7243C48.8634 16.3999 48.7507 17.04 48.5255 17.6448C48.3004 18.2431 47.9626 18.7707 47.5122 19.2276C47.0619 19.6779 46.4989 20.0382 45.8234 20.3084C45.1478 20.5722 44.3628 20.7041 43.4686 20.7041C42.5872 20.7041 41.8087 20.5786 41.133 20.3277C40.4639 20.0704 39.901 19.7197 39.4442 19.2757C38.9938 18.8254 38.6528 18.2979 38.4212 17.6931C38.196 17.0819 38.0834 16.4256 38.0834 15.7243ZM41.2972 15.7243C41.2972 16.149 41.3357 16.5543 41.413 16.9403C41.4901 17.3199 41.6124 17.6545 41.7797 17.944C41.9534 18.2335 42.1786 18.4651 42.4552 18.6388C42.7319 18.8061 43.0697 18.8897 43.4686 18.8897C43.8353 18.8897 44.1538 18.8126 44.424 18.6581C44.7007 18.5038 44.9258 18.2882 45.0996 18.0115C45.2797 17.7349 45.4148 17.4035 45.5048 17.0175C45.5949 16.625 45.64 16.194 45.64 15.7243C45.64 15.2997 45.5981 14.8975 45.5146 14.518C45.4373 14.132 45.3119 13.7942 45.1381 13.5046C44.9644 13.2087 44.7393 12.9771 44.4626 12.8098C44.1924 12.6361 43.861 12.5492 43.4686 12.5492C43.0761 12.5492 42.7416 12.6328 42.4649 12.8002C42.1882 12.9674 41.9631 13.1958 41.7893 13.4853C41.6156 13.7749 41.4901 14.1126 41.413 14.4987C41.3357 14.8847 41.2972 15.2932 41.2972 15.7243Z" fill="#8B888A"/>
<path d="M56.7851 18.7255C56.6113 19.0471 56.399 19.3206 56.1481 19.5458C55.9036 19.7709 55.6301 19.9576 55.3278 20.1055C55.0318 20.247 54.7134 20.3532 54.3724 20.424C54.0378 20.4883 53.6936 20.5205 53.3397 20.5205C52.7478 20.5205 52.2074 20.4144 51.7184 20.202C51.2294 19.9897 50.8081 19.6841 50.4542 19.2852C50.1067 18.8799 49.8365 18.3845 49.6435 17.799C49.4505 17.2135 49.3539 16.5444 49.3539 15.7917C49.3539 15.0839 49.444 14.4212 49.6242 13.8036C49.8043 13.1859 50.0649 12.6487 50.4059 12.1919C50.7534 11.7351 51.178 11.3748 51.6798 11.111C52.1816 10.8473 52.7543 10.7153 53.3976 10.7153C54.1311 10.7153 54.7809 10.8569 55.3471 11.1399C55.9197 11.4231 56.4119 11.8863 56.8237 12.5296V12.2788C56.8237 11.8156 56.9491 11.4681 57.2 11.2365C57.4574 10.9985 57.8113 10.8794 58.2616 10.8794C58.5318 10.8794 58.7602 10.9244 58.9468 11.0145C59.1334 11.0982 59.2813 11.2268 59.3907 11.4006C59.5002 11.5678 59.5773 11.7769 59.6224 12.0279C59.6738 12.2723 59.6995 12.5522 59.6995 12.8675V19.3335C59.6995 20.1184 59.5999 20.8196 59.4004 21.4373C59.2074 22.0549 58.905 22.5761 58.4932 23.0007C58.0815 23.4254 57.5539 23.747 56.9105 23.9658C56.2671 24.191 55.5015 24.3036 54.6137 24.3036C53.9896 24.3036 53.4363 24.2747 52.9537 24.2167C52.4776 24.1653 52.0658 24.0848 51.7184 23.9755C51.371 23.8532 51.1072 23.7181 50.927 23.5701C50.7534 23.4221 50.6665 23.2291 50.6665 22.9911C50.6665 22.856 50.6858 22.7273 50.7244 22.605C50.763 22.4828 50.8209 22.3735 50.8981 22.2769C50.9817 22.1869 51.0879 22.1129 51.2166 22.0549C51.3517 22.0035 51.5157 21.9778 51.7087 21.9778C51.9146 21.9778 52.1205 21.9906 52.3264 22.0164C52.5387 22.0421 52.7575 22.0679 52.9827 22.0935C53.2142 22.1257 53.4555 22.1546 53.7065 22.1804C53.9638 22.2061 54.2404 22.219 54.5364 22.219C54.8903 22.219 55.2055 22.1836 55.4822 22.1129C55.7589 22.0421 55.9936 21.9167 56.1867 21.7365C56.3797 21.5564 56.5277 21.3151 56.6306 21.0127C56.7336 20.7167 56.7851 20.3371 56.7851 19.8739V18.7255ZM56.7851 15.7241C56.7851 15.2544 56.7497 14.8266 56.6789 14.4406C56.6146 14.0545 56.5019 13.7264 56.3411 13.4561C56.1803 13.1795 55.9647 12.9672 55.6945 12.8192C55.4243 12.6648 55.0865 12.5876 54.6812 12.5876C54.2823 12.5876 53.951 12.668 53.6872 12.8288C53.4298 12.9897 53.224 13.2117 53.0695 13.4947C52.9151 13.7779 52.8058 14.1092 52.7414 14.4888C52.6835 14.8684 52.6546 15.2737 52.6546 15.7048C52.6546 16.6891 52.8283 17.4291 53.1757 17.9244C53.5231 18.4199 54.0281 18.6676 54.6908 18.6676C54.9996 18.6612 55.2796 18.6032 55.5304 18.4938C55.7878 18.378 56.0098 18.2011 56.1963 17.963C56.3829 17.725 56.5277 17.4226 56.6306 17.0558C56.7336 16.6891 56.7851 16.2452 56.7851 15.7241Z" fill="#8B888A"/>
<path d="M60.5859 15.7243C60.5859 15.0423 60.6953 14.399 60.914 13.7942C61.1393 13.1829 61.4738 12.649 61.9177 12.1921C62.3681 11.7353 62.9278 11.3718 63.5969 11.1016C64.2725 10.8313 65.0639 10.6963 65.9711 10.6963C66.8396 10.6963 67.6084 10.8217 68.2775 11.0726C68.9467 11.3236 69.5096 11.6742 69.9664 12.1246C70.4232 12.5685 70.7707 13.0993 71.0087 13.7169C71.2468 14.3281 71.3658 14.9973 71.3658 15.7243C71.3658 16.3999 71.2532 17.04 71.028 17.6448C70.8028 18.2431 70.4651 18.7707 70.0147 19.2276C69.5643 19.6779 69.0013 20.0382 68.3258 20.3084C67.6503 20.5722 66.8653 20.7041 65.9711 20.7041C65.0896 20.7041 64.3111 20.5786 63.6355 20.3277C62.9664 20.0704 62.4035 19.7197 61.9467 19.2757C61.4963 18.8254 61.1553 18.2979 60.9237 17.6931C60.6985 17.0819 60.5859 16.4256 60.5859 15.7243ZM63.7996 15.7243C63.7996 16.149 63.8382 16.5543 63.9155 16.9403C63.9926 17.3199 64.1148 17.6545 64.2822 17.944C64.4559 18.2335 64.681 18.4651 64.9577 18.6388C65.2343 18.8061 65.5722 18.8897 65.9711 18.8897C66.3378 18.8897 66.6562 18.8126 66.9264 18.6581C67.2031 18.5038 67.4283 18.2882 67.602 18.0115C67.7822 17.7349 67.9172 17.4035 68.0073 17.0175C68.0974 16.625 68.1425 16.194 68.1425 15.7243C68.1425 15.2997 68.1006 14.8975 68.017 14.518C67.9398 14.132 67.8143 13.7942 67.6406 13.5046C67.4669 13.2087 67.2417 12.9771 66.9651 12.8098C66.6949 12.6361 66.3635 12.5492 65.9711 12.5492C65.5786 12.5492 65.244 12.6328 64.9674 12.8002C64.6907 12.9674 64.4655 13.1958 64.2918 13.4853C64.1181 13.7749 63.9926 14.1126 63.9155 14.4987C63.8382 14.8847 63.7996 15.2932 63.7996 15.7243Z" fill="#8B888A"/>
<path d="M75.5044 7.44408C75.5044 7.6564 75.4561 7.84619 75.3596 8.01347C75.2631 8.17432 75.1377 8.30939 74.9832 8.41884C74.8288 8.5282 74.6486 8.61179 74.4428 8.66968C74.2434 8.72116 74.0375 8.74693 73.8251 8.74693C73.6 8.74693 73.3844 8.71794 73.1786 8.66005C72.9791 8.60216 72.8022 8.51857 72.6478 8.40912C72.4934 8.29333 72.3711 8.15501 72.281 7.99417C72.191 7.83333 72.1459 7.64996 72.1459 7.44408C72.1459 7.2575 72.1878 7.087 72.2714 6.93259C72.3615 6.77175 72.4805 6.63342 72.6284 6.5176C72.7764 6.4018 72.9534 6.31172 73.1593 6.24739C73.3652 6.18305 73.5903 6.15088 73.8348 6.15088C74.0471 6.15088 74.253 6.17983 74.4525 6.23774C74.6584 6.29564 74.8385 6.37928 74.9929 6.48866C75.1473 6.59803 75.2696 6.73314 75.3596 6.89398C75.4561 7.05483 75.5044 7.23819 75.5044 7.44408ZM75.3596 18.6872C75.3596 19.2984 75.2342 19.7681 74.9832 20.0962C74.7387 20.4243 74.3302 20.5884 73.7576 20.5884C73.2172 20.5884 72.8343 20.4243 72.6092 20.0962C72.3904 19.7681 72.281 19.2984 72.281 18.6872V12.7809C72.281 12.1697 72.3904 11.7 72.6092 11.3719C72.8343 11.0438 73.2172 10.8797 73.7576 10.8797C74.3302 10.8797 74.7387 11.0438 74.9832 11.3719C75.2342 11.7 75.3596 12.1697 75.3596 12.7809V18.6872Z" fill="#8B888A"/>
<path d="M79.7975 15.7048C79.7975 16.1359 79.8296 16.5379 79.894 16.9112C79.9647 17.2843 80.0805 17.6124 80.2413 17.8955C80.4087 18.1721 80.6274 18.3909 80.8976 18.5517C81.1742 18.7126 81.5153 18.793 81.9206 18.793C82.2937 18.793 82.6058 18.7158 82.857 18.5614C83.1139 18.4006 83.3198 18.1818 83.4746 17.9052C83.6286 17.622 83.7381 17.2907 83.8024 16.9112C83.8732 16.5315 83.9086 16.1197 83.9086 15.6759C83.9086 15.322 83.8831 14.9617 83.8312 14.595C83.7801 14.2218 83.6838 13.884 83.5421 13.5816C83.4005 13.2792 83.2045 13.0315 82.9533 12.8385C82.7021 12.6455 82.3744 12.549 81.9689 12.549C81.5635 12.549 81.2193 12.6133 80.9362 12.742C80.6595 12.8707 80.4344 13.0669 80.2607 13.3307C80.0934 13.5945 79.9744 13.9259 79.9036 14.3247C79.8328 14.7172 79.7975 15.1772 79.7975 15.7048ZM79.7878 12.7806C79.9487 12.4396 80.1545 12.1404 80.4055 11.8831C80.6563 11.6257 80.933 11.4102 81.2354 11.2365C81.5378 11.0628 81.8531 10.9341 82.1812 10.8505C82.516 10.7604 82.8471 10.7153 83.1748 10.7153C83.767 10.7153 84.3014 10.8473 84.7774 11.111C85.2534 11.3748 85.6586 11.7351 85.993 12.1919C86.3339 12.6423 86.595 13.1763 86.7753 13.7939C86.9548 14.4052 87.0454 15.0614 87.0454 15.7627C87.0454 16.4897 86.9483 17.1556 86.7555 17.7604C86.5694 18.3652 86.3018 18.8863 85.9543 19.3238C85.6133 19.7549 85.2016 20.0926 84.719 20.3371C84.243 20.5816 83.7126 20.7038 83.1271 20.7038C82.4065 20.7038 81.763 20.5366 81.1968 20.202C80.6306 19.8675 80.161 19.3978 79.7878 18.793V22.2673C79.7878 22.8785 79.6623 23.3482 79.4114 23.6763C79.1669 24.0044 78.7584 24.1685 78.1857 24.1685C77.6453 24.1685 77.2625 24.0044 77.0373 23.6763C76.8186 23.3482 76.7092 22.8785 76.7092 22.2673V12.7806C76.7092 12.1694 76.8186 11.6997 77.0373 11.3716C77.2625 11.0435 77.6453 10.8794 78.1857 10.8794C78.7584 10.8794 79.1669 11.0435 79.4114 11.3716C79.6623 11.6997 79.7878 12.1694 79.7878 12.7806Z" fill="#8B888A"/>
<path d="M90.4408 13.4661C90.4408 13.7169 90.5504 13.9132 90.7686 14.0547C90.9876 14.1899 91.2899 14.3024 91.6761 14.3925C92.0426 14.4761 92.4189 14.5566 92.8052 14.6337C93.1914 14.711 93.5678 14.8011 93.9342 14.904C94.3007 15.0005 94.6449 15.1163 94.9669 15.2514C95.2881 15.3865 95.5714 15.557 95.816 15.7629C96.0606 15.9623 96.2533 16.2069 96.3949 16.4963C96.5366 16.7795 96.6074 17.1205 96.6074 17.5193C96.6074 18.0212 96.5045 18.4683 96.2986 18.8608C96.0927 19.2468 95.8003 19.5749 95.4207 19.8452C95.0476 20.1154 94.6005 20.3245 94.0792 20.4725C93.5579 20.6205 92.9822 20.6976 92.3514 20.7041C91.7535 20.7041 91.1771 20.6655 90.6236 20.5883C90.0711 20.5175 89.5786 20.4049 89.1471 20.2505C88.7229 20.0961 88.382 19.9063 88.1242 19.6811C87.8673 19.4495 87.7388 19.1793 87.7388 18.8705C87.7388 18.6002 87.8253 18.3911 87.9991 18.2431C88.1728 18.0952 88.3944 18.0212 88.6653 18.0212C88.7682 18.0212 88.8901 18.0404 89.0318 18.0791C89.1734 18.1177 89.3274 18.1659 89.4946 18.2238C89.6618 18.2817 89.8388 18.3461 90.0258 18.4169C90.2185 18.4812 90.4178 18.5391 90.6236 18.5906C90.8814 18.6614 91.1449 18.7193 91.4151 18.7643C91.6918 18.8029 91.9751 18.8222 92.2649 18.8222C92.4445 18.8222 92.6215 18.8061 92.7953 18.774C92.9691 18.7353 93.1239 18.6807 93.2589 18.6099C93.4006 18.5327 93.5159 18.4361 93.6065 18.3204C93.6962 18.2046 93.7506 18.063 93.7703 17.8957C93.7893 17.8571 93.8058 17.8185 93.8181 17.7799C93.8313 17.7413 93.8379 17.6963 93.8379 17.6448C93.8379 17.4646 93.7539 17.3038 93.5867 17.1622C93.4261 17.0207 93.1972 16.9081 92.9015 16.8245C92.4058 16.7087 91.9331 16.6026 91.4826 16.506C91.0329 16.4095 90.6146 16.3066 90.2284 16.1972C89.8487 16.0879 89.5012 15.9623 89.1858 15.8208C88.8769 15.6793 88.6134 15.5055 88.3943 15.2997C88.1827 15.0938 88.0147 14.8461 87.8928 14.5566C87.7767 14.267 87.7191 13.9164 87.7191 13.5046C87.7191 13.0607 87.8187 12.665 88.018 12.3176C88.2239 11.9637 88.5171 11.6678 88.8967 11.4297C89.2763 11.1916 89.7359 11.0115 90.2769 10.8893C90.8172 10.7606 91.4282 10.6963 92.1101 10.6963C93.3322 10.6963 94.262 10.8443 94.8994 11.1402C95.5426 11.4297 95.8646 11.8093 95.8646 12.279C95.8646 12.5428 95.7773 12.7455 95.6035 12.887C95.4298 13.0221 95.2206 13.0896 94.9768 13.0896C94.8475 13.0896 94.7125 13.0671 94.5708 13.0221C94.4358 12.9706 94.2719 12.9159 94.0792 12.8581C93.8856 12.7937 93.6542 12.7391 93.3841 12.694C93.1206 12.6425 92.792 12.6168 92.4 12.6168C92.1035 12.6168 91.8334 12.6296 91.5888 12.6554C91.3508 12.6811 91.1449 12.7261 90.9712 12.7904C90.804 12.8548 90.6722 12.9416 90.5759 13.0511C90.4853 13.1605 90.4408 13.2987 90.4408 13.4661Z" fill="#8B888A"/>
<path d="M100.524 17.0076C100.524 17.31 100.563 17.5738 100.64 17.799C100.723 18.0242 100.836 18.214 100.978 18.3684C101.12 18.5164 101.283 18.629 101.47 18.7061C101.663 18.777 101.869 18.8124 102.087 18.8124C102.345 18.8124 102.593 18.7737 102.831 18.6965C103.069 18.6193 103.278 18.5003 103.458 18.3394C103.645 18.1786 103.793 17.9759 103.902 17.7314C104.011 17.487 104.066 17.2006 104.066 16.8725V12.7806C104.066 12.1694 104.176 11.6997 104.394 11.3716C104.62 11.0435 105.003 10.8794 105.543 10.8794C106.115 10.8794 106.524 11.0435 106.768 11.3716C107.019 11.6997 107.145 12.1694 107.145 12.7806V18.6869C107.145 19.2981 107.019 19.7677 106.768 20.0958C106.524 20.424 106.115 20.5881 105.543 20.5881C105.003 20.5881 104.62 20.424 104.394 20.0958C104.176 19.7677 104.066 19.2981 104.066 18.6869C103.931 18.9828 103.754 19.253 103.535 19.4975C103.323 19.7421 103.072 19.9544 102.782 20.1345C102.499 20.3082 102.184 20.4433 101.837 20.5398C101.496 20.6363 101.125 20.6846 100.727 20.6846C100.296 20.6846 99.881 20.6105 99.4816 20.4626C99.0896 20.3082 98.742 20.083 98.4398 19.787C98.1376 19.4847 97.8963 19.1115 97.7159 18.6676C97.5356 18.2236 97.4458 17.7057 97.4458 17.1138V12.7806C97.4458 12.1694 97.5553 11.6997 97.7736 11.3716C97.9992 11.0435 98.3813 10.8794 98.9224 10.8794C99.4947 10.8794 99.9032 11.0435 100.148 11.3716C100.399 11.6997 100.524 12.1694 100.524 12.7806V17.0076Z" fill="#8B888A"/>
<path d="M108.542 12.7806C108.542 12.1694 108.652 11.6997 108.871 11.3716C109.095 11.0435 109.478 10.8794 110.019 10.8794C110.592 10.8794 111 11.0435 111.245 11.3716C111.495 11.6997 111.621 12.1694 111.621 12.7806C111.75 12.4718 111.923 12.1919 112.142 11.941C112.367 11.6836 112.622 11.4649 112.904 11.2847C113.194 11.1046 113.506 10.9663 113.841 10.8697C114.175 10.7668 114.522 10.7153 114.883 10.7153C115.218 10.7153 115.545 10.7604 115.867 10.8505C116.195 10.9341 116.498 11.0724 116.775 11.2654C117.057 11.452 117.305 11.6901 117.518 11.9796C117.73 12.2691 117.894 12.6165 118.01 13.0219C118.209 12.5908 118.444 12.2273 118.714 11.9314C118.984 11.6354 119.278 11.3973 119.592 11.2172C119.908 11.037 120.236 10.9084 120.577 10.8311C120.925 10.754 121.271 10.7153 121.619 10.7153C122.031 10.7153 122.423 10.7894 122.796 10.9373C123.176 11.0853 123.507 11.3105 123.79 11.6129C124.08 11.9088 124.308 12.2852 124.476 12.742C124.649 13.1923 124.736 13.72 124.736 14.3247V18.6869C124.736 19.2981 124.611 19.7677 124.36 20.0958C124.116 20.424 123.706 20.5881 123.134 20.5881C122.594 20.5881 122.211 20.424 121.986 20.0958C121.767 19.7677 121.658 19.2981 121.658 18.6869V14.4598C121.658 14.1703 121.619 13.9129 121.542 13.6878C121.465 13.4561 121.355 13.2632 121.214 13.1088C121.079 12.9479 120.918 12.8288 120.731 12.7517C120.545 12.668 120.345 12.6262 120.133 12.6262C119.869 12.6262 119.618 12.668 119.38 12.7517C119.142 12.8353 118.933 12.964 118.753 13.1377C118.579 13.3114 118.438 13.5334 118.328 13.8036C118.225 14.0738 118.174 14.3987 118.174 14.7783V18.6869C118.174 19.2981 118.048 19.7677 117.798 20.0958C117.553 20.424 117.145 20.5881 116.571 20.5881C116.031 20.5881 115.648 20.424 115.423 20.0958C115.204 19.7677 115.095 19.2981 115.095 18.6869V14.6432C115.095 13.9805 114.956 13.4787 114.681 13.1377C114.41 12.7967 114.04 12.6262 113.57 12.6262C113.294 12.6262 113.036 12.6712 112.798 12.7613C112.56 12.8514 112.354 12.9832 112.18 13.157C112.007 13.3307 111.868 13.5462 111.765 13.8036C111.669 14.0609 111.621 14.3569 111.621 14.6914V18.6869C111.621 19.2981 111.495 19.7677 111.245 20.0958C111 20.424 110.592 20.5881 110.019 20.5881C109.478 20.5881 109.095 20.424 108.871 20.0958C108.652 19.7677 108.542 19.2981 108.542 18.6869V12.7806Z" fill="#8B888A"/>
<path d="M14 18.9409C11.2711 18.9409 9.05884 16.7287 9.05884 13.9998C9.05884 11.2708 11.2711 9.05859 14 9.05859C16.7289 9.05859 18.9412 11.2708 18.9412 13.9998C18.9412 16.7287 16.7289 18.9409 14 18.9409Z" fill="#8B888A"/>
<path d="M4.42748 15.6879C2.99557 15.9404 2.01407 17.3236 2.56374 18.6697C3.33113 20.549 4.55542 22.2234 6.14261 23.5318C8.41219 25.4026 11.2748 26.4023 14.2156 26.351C17.1564 26.2997 19.9824 25.2007 22.1854 23.2517C23.7259 21.8888 24.891 20.1726 25.5924 18.2677C26.0948 16.9032 25.0655 15.5551 23.6257 15.3528C22.1859 15.1504 20.8931 16.1985 20.1819 17.4667C19.7964 18.1541 19.296 18.7777 18.6964 19.3082C17.4325 20.4265 15.811 21.0569 14.1238 21.0864C12.4364 21.1158 10.794 20.5423 9.49183 19.4689C8.8741 18.9597 8.35223 18.3539 7.94296 17.6803C7.18795 16.4377 5.85939 15.4354 4.42748 15.6879Z" fill="#8B888A"/>
<path d="M26.2574 15.5436C26.3205 15.0379 26.353 14.5227 26.353 13.9999C26.353 7.17757 20.8224 1.64697 14 1.64697C7.1777 1.64697 1.64709 7.17757 1.64709 13.9999C1.64709 14.6708 1.70058 15.3293 1.80353 15.9712C2.37093 15.1944 3.25649 14.64 4.21301 14.4713C5.24794 14.2888 6.18851 14.5398 6.98379 15.009C6.93681 14.6794 6.91249 14.3425 6.91249 13.9999C6.91249 10.0856 10.0857 6.91237 14 6.91237C17.9144 6.91237 21.0876 10.0856 21.0876 13.9999C21.0876 14.258 21.0737 14.5129 21.0469 14.7638C21.8254 14.267 22.7568 13.9831 23.7976 14.1295C24.7592 14.2646 25.6633 14.7875 26.2574 15.5436Z" fill="#8B888A"/>
</svg>