<svg xmlns="http://www.w3.org/2000/svg" width="79" height="80" viewBox="0 0 79 80" fill="none">
<path d="M69.1298 25.5872C69.7874 26.57 70.4186 27.7824 70.1082 29.0816C69.037 28.4685 68.1754 27.4675 67.4922 26.4792C66.8042 25.4844 66.0898 24.4264 65.845 23.2002C67.1962 23.5458 68.4058 24.5052 69.1298 25.5872Z" fill="#8B888A"/>
<path d="M11.0548 29.0793C10.7452 27.7798 11.3777 26.5679 12.0365 25.5857C12.7617 24.5043 13.9717 23.5458 15.3231 23.2012C15.0776 24.4272 14.362 25.4847 13.6733 26.4789C12.9892 27.4667 12.1264 28.4671 11.0548 29.0793Z" fill="#8B888A"/>
<path d="M10.1114 31.5722C10.353 30.5431 10.3477 29.4165 10.1176 28.4512C9.91528 27.6029 9.62088 26.4037 8.65192 25.999C7.9476 27.1288 7.66448 28.6673 8.07496 29.8201C8.37176 30.6539 8.90552 31.7564 10.0125 31.927C11.0282 32.1612 12.0554 31.6193 12.8666 31.172C13.7686 30.6746 14.6521 29.8833 15.1889 28.9426C14.2042 28.4456 13.0827 28.8489 12.239 29.2355C11.3296 29.6522 10.4942 30.5463 10.1114 31.5722Z" fill="#8B888A"/>
<path d="M29.8246 32.5609V27.394H28.0606V29.2765H25.4146V27.394H23.6506V32.5609H25.4146V30.6851H28.0606V32.5609H29.8246Z" fill="#8B888A"/>
<path d="M35.674 27.394H37.6222L34.8578 30.8562V32.5609H33.0872V30.8628L30.3557 27.394H32.3632L33.9956 29.4608L35.674 27.394Z" fill="#8B888A"/>
<path fill-rule="evenodd" clip-rule="evenodd" d="M43.7659 27.835C44.1147 28.1115 44.3122 28.5788 44.3122 29.2568C44.3122 29.8096 44.1739 30.2243 43.9107 30.514C43.5552 30.922 42.9695 31.1063 42.2059 31.1129C41.969 31.1195 39.9417 31.1129 39.9417 31.1129V32.5609H38.1711V27.394H42.1796C42.8904 27.394 43.4302 27.5388 43.7659 27.835ZM42.456 29.6583C42.5087 29.5661 42.5351 29.4476 42.5351 29.2831C42.5351 29.112 42.5021 28.9672 42.4429 28.8882C42.331 28.7236 42.1203 28.6446 41.7781 28.6446H39.9286V29.9084H41.7649C42.1335 29.9084 42.3507 29.8228 42.456 29.6583Z" fill="#8B888A"/>
<path d="M50.46 31.2774V32.5609H45.0168V27.394H50.4144V28.6841H46.7544V29.3489H50.3088V30.606H46.7544V31.2774H50.46Z" fill="#8B888A"/>
<path fill-rule="evenodd" clip-rule="evenodd" d="M57.0681 27.9206C57.3057 28.1641 57.4169 28.4998 57.4169 28.9672C57.4169 29.3687 57.3185 29.7109 57.1537 29.9413C56.9697 30.1914 56.6865 30.402 56.3377 30.4547L57.8977 32.5609H55.9361L54.6529 30.7377H53.0537V32.5609H51.2961V27.394H55.4097C56.2257 27.394 56.7593 27.5915 57.0681 27.9206ZM55.6465 29.4016C55.6929 29.3226 55.7057 29.2172 55.7057 29.1317C55.7057 29.033 55.6929 28.9276 55.6465 28.8618C55.5545 28.6907 55.3705 28.6446 55.0937 28.6446H53.0601V29.5859H55.1265C55.4097 29.5859 55.5809 29.5332 55.6465 29.4016Z" fill="#8B888A"/>
<path d="M49.5176 39.0414C49.5176 37.8603 48.7672 37.2396 47.0172 37.0499C46.7327 37.0154 45.8964 36.9292 45.3705 36.8861C44.017 36.7395 43.6119 36.662 43.6119 36.3171C43.6119 36.0068 43.9308 35.8602 45.1464 35.8602C46.0085 35.8602 46.4913 36.024 46.6809 36.274C46.7758 36.3947 46.8103 36.4895 46.8189 36.5844H49.3018C49.2759 36.3774 49.1897 36.0843 49.0517 35.8258C48.6035 34.9636 47.5258 34.2739 45.2068 34.2739C42.5945 34.2739 41.1635 35.1964 41.1635 36.4034C41.1635 37.5672 41.9738 38.2482 44.1636 38.4466C44.4112 38.4678 44.9429 38.518 45.3783 38.5591L45.4052 38.5617L45.41 38.5622L45.412 38.5623L45.6464 38.5845C46.793 38.7052 47.1034 38.7827 47.1034 39.1449C47.1034 39.481 46.8016 39.6621 45.5344 39.6621C44.5516 39.6621 43.974 39.5155 43.767 39.2655C43.6808 39.1621 43.6204 39.0069 43.6032 38.9034H41.1204C41.1462 39.0758 41.1893 39.3518 41.2841 39.5759C41.7066 40.5242 42.8101 41.2484 45.3705 41.2484C48.1207 41.2484 49.5176 40.4725 49.5176 39.0414Z" fill="#8B888A"/>
<path fill-rule="evenodd" clip-rule="evenodd" d="M31.9156 40.4554C32.1742 40.1536 32.3035 39.6966 32.3035 39.2311C32.3035 38.8346 32.2001 38.4552 31.9846 38.2052C31.7259 37.869 31.269 37.6276 30.7862 37.5673C31.1138 37.5242 31.4242 37.3518 31.6052 37.1276C31.8294 36.8603 31.9328 36.4982 31.9328 36.0586C31.9328 35.6189 31.8035 35.231 31.5104 34.9378C31.1828 34.6016 30.5879 34.3774 29.6569 34.3774H23.8118V41.145H29.8206C30.7776 41.145 31.519 40.9381 31.9156 40.4554ZM29.5362 36.4638C29.5362 36.6276 29.4844 36.7655 29.3982 36.8603C29.2775 36.9724 29.0534 37.0155 28.7602 37.0155H26.0705V35.912H28.6999C29.0275 35.912 29.2517 35.9551 29.3723 36.0672C29.4844 36.162 29.5362 36.2999 29.5362 36.4638ZM29.7948 39.4294C29.6569 39.5587 29.4154 39.6105 29.0102 39.6105H26.0705V38.4811H29.0362C29.4154 38.4811 29.6396 38.5328 29.7689 38.6449C29.8724 38.7483 29.9154 38.8777 29.9154 39.0501C29.9154 39.2139 29.881 39.3432 29.7948 39.4294Z" fill="#8B888A"/>
<path d="M40.4209 39.4639V41.145H33.2913V34.3774H40.3605V36.0672H35.5672V36.9379H40.2226V38.5846H35.5672V39.4639H40.4209Z" fill="#8B888A"/>
<path d="M57.906 36.0758V34.3774H49.8284V36.0758H52.682V41.145H55.0436V36.0758H57.906Z" fill="#8B888A"/>
<path d="M57.7015 47.1336H57.3215L57.2943 46.7677C57.1783 46.9529 56.9327 47.1752 56.4143 47.1752C55.5383 47.1752 55.1311 46.6472 55.1311 45.2991C55.1311 44.2569 55.3903 43.4185 56.4599 43.4185C57.3871 43.4185 57.6695 44.0253 57.6831 44.6785H57.2199C57.2063 44.2523 57.0159 43.8585 56.4695 43.8585C55.8119 43.8585 55.6215 44.2523 55.6215 45.3131C55.6215 46.4202 55.8583 46.7677 56.4791 46.7677C56.9143 46.7677 57.1687 46.5268 57.2527 46.2396V45.5493H56.3167V45.1277H57.6967V46.1933C57.6967 46.5116 57.6999 46.8513 57.7007 47.0221L57.7015 47.1034V47.1336Z" fill="#8B888A"/>
<path fill-rule="evenodd" clip-rule="evenodd" d="M23.8994 46.2117H25.1964L25.4651 47.1336H25.9561L24.8814 43.4648H24.2839L23.135 47.1336H23.6214L23.8994 46.2117ZM25.0806 45.7995H24.0245C24.0245 45.7995 24.483 44.3172 24.4923 44.2848C24.4969 44.2616 24.5711 43.9327 24.5711 43.9327L24.6224 44.176L24.6452 44.2848C24.6498 44.3079 25.0806 45.7995 25.0806 45.7995Z" fill="#8B888A"/>
<path d="M29.4723 43.4648H29.917L29.0507 47.1336H28.4995C28.4995 47.1336 27.8834 44.2801 27.8834 44.1596C27.8787 44.2801 27.2487 47.1336 27.2487 47.1336H26.6975L25.8313 43.4648H26.3315C26.3315 43.4648 27.0032 46.3692 27.0032 46.4851C27.0032 46.3692 27.6194 43.4648 27.6194 43.4648H28.1706C28.1706 43.4648 28.7867 46.3739 28.7867 46.4851C28.7867 46.3739 29.4723 43.4648 29.4723 43.4648Z" fill="#8B888A"/>
<path fill-rule="evenodd" clip-rule="evenodd" d="M31.8184 46.2117H30.5214L30.2435 47.1336H29.7571L30.9059 43.4648H31.5035L32.5782 47.1336H32.0872L31.8184 46.2117ZM30.6465 45.7995H31.7027C31.7027 45.7995 31.2719 44.3079 31.2672 44.2848L31.2322 44.1178L31.1931 43.9327C31.1931 43.9327 31.119 44.2616 31.1144 44.2848C31.1051 44.3172 30.6465 45.7995 30.6465 45.7995Z" fill="#8B888A"/>
<path fill-rule="evenodd" clip-rule="evenodd" d="M34.3637 43.4648C34.9289 43.4648 35.2346 43.7288 35.2346 44.4978C35.2346 45.151 34.9891 45.3687 34.7343 45.4428L35.4385 47.1336H34.9289L34.2757 45.5355H33.3864V47.1336H32.9231V43.4648H34.3637ZM34.2943 45.1185C34.6602 45.1185 34.7482 44.9286 34.7482 44.5117C34.7482 44.0392 34.6093 43.8956 34.2711 43.8956H33.3909V45.1185H34.2943Z" fill="#8B888A"/>
<path fill-rule="evenodd" clip-rule="evenodd" d="M38.3183 45.239C38.3183 46.1052 38.2535 46.4572 38.0682 46.7213C37.883 46.9761 37.5911 47.1336 37.1186 47.1336H35.8586V43.4648H37.0862C37.5494 43.4648 37.9107 43.6038 38.0775 43.854C38.2628 44.1226 38.3183 44.4561 38.3183 45.239ZM37.0214 46.6981C37.3039 46.6981 37.5402 46.624 37.6606 46.4619C37.7903 46.2859 37.8274 45.9292 37.8274 45.239C37.8274 44.66 37.7949 44.3496 37.6606 44.1504C37.5355 43.979 37.2946 43.9048 37.0121 43.9048H36.3265V46.6981H37.0214Z" fill="#8B888A"/>
<path d="M43.2057 43.4648H43.6504L42.7841 47.1336H42.2329C42.2329 47.1336 41.6168 44.2801 41.6168 44.1596C41.6121 44.2801 40.9821 47.1336 40.9821 47.1336H40.4309L39.5647 43.4648H40.0649C40.0649 43.4648 40.7366 46.3692 40.7366 46.4851C40.7366 46.3692 41.3527 43.4648 41.3527 43.4648H41.904C41.904 43.4648 42.5201 46.3739 42.5201 46.4851C42.5201 46.3739 43.2057 43.4648 43.2057 43.4648Z" fill="#8B888A"/>
<path d="M44.4693 43.4648V47.1336H43.9875V43.4648H44.4693Z" fill="#8B888A"/>
<path d="M47.4856 43.4648V47.1336H46.9529L45.5863 44.2893V47.1336H45.137V43.4648H45.6975L47.0316 46.2673V43.4648H47.4856Z" fill="#8B888A"/>
<path d="M50.4893 43.4648V47.1336H49.9565L48.5902 44.2893V47.1336H48.1409V43.4648H48.7014L50.0357 46.2673V43.4648H50.4893Z" fill="#8B888A"/>
<path d="M51.6264 43.4648V47.1336H51.1448V43.4648H51.6264Z" fill="#8B888A"/>
<path d="M54.642 43.4648V47.1336H54.1092L52.7428 44.2893V47.1336H52.2932V43.4648H52.854L54.1884 46.2673V43.4648H54.642Z" fill="#8B888A"/>
<path d="M29.1146 54.3642L28.5838 52.7305L28.053 54.3642H26.3352L27.7249 55.374L27.1941 57.0078L28.5838 55.998L29.9736 57.0078L29.4427 55.374L30.8325 54.3642H29.1146Z" fill="#8B888A"/>
<path d="M35.2535 54.3647L34.7118 52.731L34.1701 54.3647H32.4172L33.8354 55.3744L33.2937 57.0082L34.7118 55.9985L36.13 57.0082L35.5883 55.3744L37.0064 54.3647H35.2535Z" fill="#8B888A"/>
<path d="M41.3336 54.3647L40.7919 52.731L40.2502 54.3647H38.4973L39.9154 55.3744L39.3737 57.0082L40.7919 55.9985L42.21 57.0082L41.6683 55.3744L43.0864 54.3647H41.3336Z" fill="#8B888A"/>
<path d="M47.4127 54.3647L46.871 52.731L46.3293 54.3647H44.5764L45.9945 55.3744L45.4528 57.0082L46.871 55.9985L48.2891 57.0082L47.7474 55.3744L49.1655 54.3647H47.4127Z" fill="#8B888A"/>
<path d="M53.5304 54.3647L53 52.731L52.4688 54.3647H50.7512L52.1408 55.3744L51.6104 57.0082L53 55.9985L54.3896 57.0082L53.8584 55.3744L55.2488 54.3647H53.5304Z" fill="#8B888A"/>
<path d="M6.98381 34.3491C7.48333 35.1112 8.25629 36.0657 9.38333 36.0385C10.4082 36.0897 11.2937 35.3903 11.9909 34.8065C12.7419 34.1778 13.4197 33.2584 13.7059 32.2644C12.6577 31.9594 11.6541 32.5244 10.9057 33.0572C10.1241 33.6138 9.52309 34.6324 9.39397 35.6782C9.38429 34.6304 9.10069 33.5483 8.64349 32.6765C8.22549 31.8796 7.64302 30.8023 6.60382 30.5869C6.19438 31.827 6.32501 33.3443 6.98381 34.3491Z" fill="#8B888A"/>
<path d="M9.71652 40.1431C8.67052 40.3184 7.6502 39.6775 6.98756 38.9237C6.13444 37.9531 5.62684 36.6511 5.73036 35.3477C6.80492 35.3749 7.61876 36.3038 8.22028 37.0062C8.86812 37.7627 9.39892 38.758 9.65356 39.7847C9.54156 38.7615 9.88508 37.6566 10.5228 36.9739C11.1383 36.3149 12.0005 35.5966 13.0733 35.7119C13.0502 36.7494 12.5301 37.7379 11.9937 38.4782C11.4937 39.1681 10.7235 40.0215 9.71652 40.1431Z" fill="#8B888A"/>
<path d="M7.78445 43.5908C8.74781 44.218 9.91621 44.8388 11.1441 44.369C12.1515 44.0126 12.792 42.9986 13.1859 42.0679C13.6032 41.0817 13.8819 39.9446 13.6889 38.8652C12.582 38.9635 11.6641 39.7555 11.1765 40.7223C10.6669 41.733 10.5691 42.936 10.9606 43.9957C10.3821 42.9056 9.53613 42.0235 8.63997 41.2084C7.82533 40.4676 6.65189 39.6871 5.46997 39.8339C5.69485 41.2951 6.58653 42.811 7.78445 43.5908Z" fill="#8B888A"/>
<path d="M13.6259 48.3191C14.5739 47.7524 14.9555 46.5599 15.1114 45.5381C15.2795 44.4361 15.2723 43.2207 14.8146 42.1753C13.7147 42.4825 12.9598 43.4724 12.7105 44.5567C12.4471 45.7022 12.6694 46.923 13.31 47.8984C12.4584 46.9214 11.326 46.1147 10.2408 45.549C9.19259 45.0026 7.90659 44.3435 6.64771 44.7415C7.25475 46.2231 8.5533 47.6024 9.9925 48.173C11.1071 48.6147 12.463 49.0516 13.6259 48.3191Z" fill="#8B888A"/>
<path d="M18.1197 48.7025C18.2588 49.7662 18.2549 51.1153 17.429 51.934C16.397 52.9903 14.7999 52.7865 13.5681 52.5541C11.9143 52.2419 10.0527 51.1139 9.05493 49.6121C10.2735 48.9411 11.7638 49.3703 12.9702 49.7178L13.0391 49.7375C14.3857 50.125 15.8208 50.749 17.0209 51.6016C16.0632 50.7362 15.3653 49.4659 15.3312 48.1856C15.3005 47.0405 15.7975 45.8154 16.8671 45.2695C17.6138 46.2496 17.9635 47.5079 18.1197 48.7025Z" fill="#8B888A"/>
<path d="M22.9125 54.9459C23.5206 53.7882 22.9181 52.4295 22.4379 51.4253C21.8702 50.2381 21.0946 49.0281 19.9846 48.1592C18.9188 49.0777 19.0202 50.3921 19.337 51.5343C19.7138 52.8925 21.0202 54.0502 22.3729 54.71C20.8062 54.1257 19.0953 53.7751 17.4674 53.6716L17.3026 53.6609C15.9948 53.5757 14.2923 53.4649 13.2502 54.4219C14.8258 55.7613 17.0638 56.5341 19.0363 56.494C20.3582 56.4671 22.1718 56.3107 22.9125 54.9459Z" fill="#8B888A"/>
<path d="M71.0491 31.5758C70.6675 30.5492 69.8323 29.654 68.9235 29.2364C68.0795 28.8492 66.9587 28.4452 65.9739 28.9413C66.5099 29.8824 67.3923 30.6744 68.2939 31.1724C69.1043 31.6203 70.1307 32.1628 71.1467 31.9296C72.2539 31.76 72.7891 30.6578 73.0867 29.824C73.4987 28.6717 73.2171 27.1329 72.5139 26.0024C71.5443 26.4065 71.2483 27.6054 71.0459 28.4536C70.8147 29.4192 70.8083 30.5462 71.0491 31.5758Z" fill="#8B888A"/>
<path d="M70.2535 33.0597C71.0343 33.6165 71.6335 34.6345 71.7623 35.6796C71.7735 34.6324 72.0583 33.5513 72.5159 32.6804C72.9343 31.8837 73.5183 30.8069 74.5575 30.5923C74.9655 31.8328 74.8335 33.35 74.1735 34.3542C73.6743 35.1149 72.9015 36.0675 71.7767 36.042C70.7503 36.0944 69.8639 35.3932 69.1663 34.8083C68.4159 34.1789 67.7391 33.259 67.4543 32.2648C68.5023 31.9605 69.5055 32.5263 70.2535 33.0597Z" fill="#8B888A"/>
<path d="M71.4975 39.7914C71.6119 38.7674 71.2695 37.6602 70.6311 36.9761C70.0167 36.3166 69.1551 35.5977 68.0823 35.7122C68.1039 36.7497 68.6231 37.7386 69.1591 38.4794C69.6583 39.1694 70.4271 40.0227 71.4335 40.1457C72.4799 40.3229 73.5015 39.6823 74.1655 38.9286C75.0191 37.9587 75.5279 36.6571 75.4263 35.3535C74.3511 35.3801 73.5367 36.3082 72.9343 37.0102C72.2847 37.7671 71.7527 38.7635 71.4975 39.7914Z" fill="#8B888A"/>
<path d="M69.9744 40.7242C70.4832 41.7355 70.58 42.9388 70.1872 43.9981C70.7664 42.9081 71.6136 42.0266 72.5104 41.2121C73.3256 40.4718 74.5 39.6924 75.6816 39.84C75.456 41.3011 74.5624 42.8164 73.364 43.5952C72.4008 44.2208 71.2336 44.8404 70.0072 44.3724C68.9984 44.0167 68.3576 43.0006 67.964 42.0683C67.5472 41.0818 67.2696 39.9445 67.464 38.8652C68.5704 38.9644 69.488 39.7571 69.9744 40.7242Z" fill="#8B888A"/>
<path d="M67.8367 47.8963C68.4767 46.9219 68.6999 45.7022 68.4383 44.5573C68.1903 43.4728 67.4359 42.4823 66.3359 42.1743C65.8775 43.2193 65.8695 44.4346 66.0359 45.5368C66.1911 46.5566 66.5703 47.7467 67.5127 48.3155C68.6767 49.0538 70.0359 48.6171 71.1519 48.1755C72.5919 47.606 73.8919 46.2276 74.4999 44.7464C73.2415 44.3476 71.9551 45.0057 70.9063 45.5513C69.8215 46.1158 68.6887 46.9209 67.8367 47.8963Z" fill="#8B888A"/>
<path d="M63.0236 48.6992C62.8836 49.7627 62.886 51.1117 63.7116 51.9312C64.742 52.9883 66.3396 52.7856 67.5716 52.554C69.226 52.243 71.0884 51.1163 72.0876 49.6153C70.87 48.9436 69.3788 49.3715 68.1724 49.718L68.1028 49.7378C66.7564 50.1241 65.3212 50.7468 64.1204 51.5981C65.0788 50.7334 65.7772 49.4642 65.8124 48.1844C65.8444 47.0393 65.3484 45.8138 64.2796 45.2671C63.5316 46.2466 63.1812 47.5048 63.0236 48.6992Z" fill="#8B888A"/>
<path d="M62.0992 56.4901C60.7776 56.4622 58.964 56.3045 58.2248 54.9391L58.2144 54.9204C57.624 53.7662 58.224 52.4173 58.7024 51.4189C59.2712 50.2321 60.048 49.0228 61.1584 48.1548C62.224 49.0741 62.1208 50.3883 61.8032 51.5302C61.4248 52.8881 60.1176 54.0451 58.764 54.7037C60.3312 54.1207 62.0424 53.7713 63.6704 53.6689L63.836 53.6584C65.144 53.5742 66.8464 53.4648 67.8872 54.4224C66.3104 55.7605 64.072 56.5317 62.0992 56.4901Z" fill="#8B888A"/>
</svg>