<svg xmlns="http://www.w3.org/2000/svg" width="107" height="30" viewBox="0 0 107 30" fill="none">
<path d="M36.5436 19.6138H38.8629V8.69922H36.5436V19.6138Z" fill="#8B888A"/>
<path d="M43.6208 19.856C46.0462 19.856 47.6379 18.2946 47.6379 15.5357C47.6379 12.8677 46.0917 11.2002 43.6208 11.2002C41.1953 11.2002 39.6188 12.7616 39.6188 15.5357C39.6188 18.2189 41.1498 19.856 43.6208 19.856ZM43.6208 17.9763C42.5748 17.9763 41.9988 17.1122 41.9988 15.5357C41.9988 13.944 42.5596 13.0799 43.6208 13.0799C44.6819 13.0799 45.258 13.9591 45.258 15.5357C45.258 17.1274 44.6971 17.9763 43.6208 17.9763Z" fill="#8B888A"/>
<path d="M51.4112 19.6286C52.2904 19.6286 53.0181 19.2648 53.5335 18.5524V19.9167C53.5335 21.0536 52.9726 21.4326 52.1388 21.4326C51.3354 21.4326 50.7139 21.0384 50.6229 20.3108H48.3036C48.5916 22.2966 50.0924 23.2062 52.1691 23.2062C54.3066 23.2062 55.8528 22.0693 55.8528 19.8864V11.4579H53.5335V12.2159C53.0332 11.5489 52.3207 11.2002 51.4112 11.2002C49.3799 11.2002 48.061 12.7161 48.061 15.4296C48.061 18.0218 49.3496 19.6286 51.4112 19.6286ZM51.9721 17.7489C50.9716 17.7489 50.441 16.9152 50.441 15.4296C50.441 13.8985 50.9716 13.0799 51.9721 13.0799C52.9877 13.0799 53.5335 13.9137 53.5335 15.4144C53.5335 16.9303 53.0029 17.7489 51.9721 17.7489Z" fill="#8B888A"/>
<path d="M60.6238 19.856C63.0493 19.856 64.641 18.2946 64.641 15.5357C64.641 12.8677 63.0948 11.2002 60.6238 11.2002C58.1984 11.2002 56.6218 12.7616 56.6218 15.5357C56.6218 18.2189 58.1529 19.856 60.6238 19.856ZM60.6238 17.9763C59.5778 17.9763 59.0018 17.1122 59.0018 15.5357C59.0018 13.944 59.5627 13.0799 60.6238 13.0799C61.685 13.0799 62.261 13.9591 62.261 15.5357C62.261 17.1274 61.7001 17.9763 60.6238 17.9763Z" fill="#8B888A"/>
<path d="M65.4128 10.6396H67.7324V8.69922H65.4128V10.6396ZM65.4128 19.6138H67.7324V11.4582H65.4128V19.6138Z" fill="#8B888A"/>
<path d="M71.1557 22.9637V18.7949C71.6408 19.4922 72.3381 19.856 73.2022 19.856C75.279 19.856 76.6281 18.2947 76.6281 15.5205C76.6281 12.8525 75.3093 11.2002 73.2022 11.2002C72.3533 11.2002 71.656 11.5943 71.1557 12.3068V11.4579H68.8364V22.9637H71.1557ZM72.7171 13.0799C73.7024 13.0799 74.2482 13.944 74.2482 15.5205C74.2482 17.1122 73.7176 17.9763 72.7171 17.9763C71.7014 17.9763 71.1557 17.0971 71.1557 15.5205C71.1557 13.944 71.6863 13.0799 72.7171 13.0799Z" fill="#8B888A"/>
<path d="M79.4135 13.7166C79.4135 13.277 79.8076 12.9738 80.414 12.9738C81.2326 12.9738 81.7177 13.3225 81.8541 14.1562H84.1583C83.9309 12.0946 82.4453 11.2002 80.4898 11.2002C78.3069 11.2002 77.2002 12.4736 77.2002 13.8379C77.2002 17.1122 82.1421 15.7024 82.1421 17.279C82.1421 17.7792 81.7328 18.0976 80.9142 18.0976C80.0501 18.0976 79.4286 17.6883 79.3225 16.9303H77.0032C77.3064 18.9465 78.7919 19.856 80.8536 19.856C82.9759 19.856 84.4614 18.7494 84.4614 17.1426C84.4614 13.9137 79.4135 15.3235 79.4135 13.7166Z" fill="#8B888A"/>
<path d="M90.1757 16.1422C90.1757 17.1881 89.5997 17.9764 88.7053 17.9764C87.8867 17.9764 87.4926 17.461 87.4926 16.415V11.458H85.1732V16.885C85.1732 18.9163 86.3102 19.8561 87.8564 19.8561C88.8417 19.8561 89.6452 19.4317 90.1757 18.5221V19.6136H92.4951V11.458H90.1757V16.1422Z" fill="#8B888A"/>
<path d="M93.6155 19.6135H95.9349V14.9293C95.9349 13.8834 96.4654 13.0799 97.2689 13.0799C98.0117 13.0799 98.3755 13.6105 98.3755 14.6413V19.6135H100.68V14.9293C100.68 13.8834 101.225 13.0799 102.029 13.0799C102.772 13.0799 103.12 13.6105 103.12 14.6413V19.6135H105.44V14.1714C105.44 12.1552 104.318 11.2002 102.802 11.2002C101.786 11.2002 100.922 11.6246 100.361 12.5494C99.952 11.6398 99.1335 11.2002 98.1633 11.2002C97.2234 11.2002 96.4503 11.6095 95.9349 12.4887V11.4579H93.6155V19.6135Z" fill="#8B888A"/>
<path d="M27.7476 22.9439C30.2601 20.7004 31.8007 17.6727 31.8007 14.3411C31.8007 7.42498 25.1613 1.81836 16.9712 1.81836C8.78108 1.81836 2.14166 7.42498 2.14166 14.3411C2.14166 21.2572 8.78108 26.8638 16.9712 26.8638C19.2947 26.8638 21.4934 26.4126 23.4511 25.6082C25.7508 27.0277 28.5684 28.048 31.6801 27.8328C30.0362 27.4149 28.6222 25.7222 27.7476 22.9439Z" fill="#8B888A"/>
<path d="M27.8462 14.341C27.8462 19.4371 22.9773 23.5683 16.9712 23.5683C10.9651 23.5683 6.09619 19.4371 6.09619 14.341C6.09619 9.24495 10.9651 5.11377 16.9712 5.11377C22.9773 5.11377 27.8462 9.24495 27.8462 14.341Z" fill="#6A6969"/>
<path d="M23.8917 14.341C23.8917 17.6171 20.7933 20.2728 16.9712 20.2728C13.1492 20.2728 10.0508 17.6171 10.0508 14.341C10.0508 11.0649 13.1492 8.40918 16.9712 8.40918C20.7933 8.40918 23.8917 11.0649 23.8917 14.341Z" fill="#5E5E5E"/>
</svg>