<svg xmlns="http://www.w3.org/2000/svg" width="105" height="24" viewBox="0 0 105 24" fill="none">
<g clip-path="url(#clip0_15_521)">
<path d="M30.3589 17.4002H37.1706V15.4606H32.436V6.40381H30.3589V17.4002Z" fill="#8B888A"/>
<path d="M41.2639 17.6293C42.0887 17.6293 42.8142 17.446 43.4403 17.0794C44.0716 16.7078 44.5629 16.1962 44.9142 15.5446C45.2705 14.8878 45.4487 14.1318 45.4487 13.2766C45.4487 12.4264 45.273 11.6755 44.9218 11.0238C44.5705 10.3671 44.0792 9.85293 43.4479 9.48129C42.8218 9.10965 42.0938 8.92383 41.2639 8.92383C40.4494 8.92383 39.729 9.10713 39.1029 9.47367C38.4767 9.84021 37.9854 10.3518 37.629 11.0086C37.2727 11.6602 37.0945 12.4162 37.0945 13.2766C37.0945 14.1267 37.2676 14.8802 37.6138 15.5369C37.965 16.1886 38.4538 16.7002 39.0799 17.0718C39.7062 17.4435 40.4341 17.6293 41.2639 17.6293ZM41.2639 15.6897C40.6174 15.6897 40.1262 15.4733 39.7902 15.0406C39.4592 14.6028 39.2938 14.0148 39.2938 13.2766C39.2938 12.5587 39.4516 11.9784 39.7672 11.5354C40.0879 11.0875 40.5868 10.8634 41.2639 10.8634C41.9207 10.8634 42.4145 11.0824 42.7454 11.5202C43.0814 11.958 43.2494 12.5434 43.2494 13.2766C43.2494 13.9842 43.084 14.5645 42.753 15.0177C42.4272 15.4656 41.9308 15.6897 41.2639 15.6897Z" fill="#8B888A"/>
<path d="M49.5563 17.6293C49.9432 17.6293 50.2996 17.5834 50.6254 17.4918C50.9563 17.4002 51.2567 17.2704 51.5265 17.1024V17.9347C51.5367 18.2402 51.4577 18.4947 51.2897 18.6984C51.1268 18.9071 50.908 19.0624 50.633 19.1642C50.3581 19.2711 50.0654 19.3246 49.7549 19.3246C49.4647 19.3246 49.1948 19.2609 48.9454 19.1337C48.701 19.0064 48.5126 18.8206 48.3803 18.5762L46.456 19.5078C46.7716 20.0424 47.2221 20.4726 47.8076 20.7984C48.3931 21.1293 49.037 21.2947 49.7396 21.2947C50.3454 21.2947 50.908 21.2133 51.4272 21.0504C51.9465 20.8926 52.3843 20.6508 52.7407 20.3249C53.1021 19.9991 53.3491 19.5842 53.4814 19.0802C53.5272 18.902 53.5577 18.7213 53.573 18.538C53.5934 18.3598 53.6036 18.1689 53.6036 17.9653V9.15291H51.7861V9.61113C51.5061 9.39219 51.1879 9.22419 50.8316 9.10713C50.4803 8.98491 50.0909 8.92383 49.6632 8.92383C48.8741 8.92383 48.1868 9.11223 47.6014 9.48891C47.0159 9.86565 46.5603 10.3824 46.2345 11.0391C45.9137 11.6907 45.7534 12.4366 45.7534 13.2766C45.7534 14.1013 45.9112 14.842 46.2269 15.4987C46.5476 16.1554 46.993 16.6747 47.5632 17.0566C48.1334 17.4384 48.7978 17.6293 49.5563 17.6293ZM49.8923 15.7813C49.4443 15.7813 49.0778 15.6693 48.7927 15.4453C48.5076 15.2213 48.2963 14.9209 48.1589 14.5442C48.0214 14.1624 47.9527 13.7398 47.9527 13.2766C47.9527 12.8184 48.0239 12.4009 48.1665 12.0242C48.3091 11.6424 48.5279 11.3395 48.8232 11.1154C49.1236 10.8864 49.5054 10.7718 49.9687 10.7718C50.6203 10.7718 51.0861 11.0035 51.3661 11.4667C51.6461 11.9249 51.7861 12.5282 51.7861 13.2766C51.7861 14.0249 51.6436 14.6307 51.3585 15.094C51.0785 15.5522 50.5898 15.7813 49.8923 15.7813Z" fill="#8B888A"/>
<path d="M58.537 17.6293C59.3618 17.6293 60.0872 17.446 60.7134 17.0794C61.3445 16.7078 61.8359 16.1962 62.1869 15.5446C62.5433 14.8878 62.7215 14.1318 62.7215 13.2766C62.7215 12.4264 62.5463 11.6755 62.1947 11.0238C61.8437 10.3671 61.3523 9.85293 60.721 9.48129C60.0949 9.10965 59.3668 8.92383 58.537 8.92383C57.7225 8.92383 57.0021 9.10713 56.3759 9.47367C55.7498 9.84021 55.2585 10.3518 54.9021 11.0086C54.5458 11.6602 54.3676 12.4162 54.3676 13.2766C54.3676 14.1267 54.5407 14.8802 54.8869 15.5369C55.2381 16.1886 55.7269 16.7002 56.353 17.0718C56.9792 17.4435 57.7072 17.6293 58.537 17.6293ZM58.537 15.6897C57.8905 15.6897 57.3992 15.4733 57.0632 15.0406C56.7323 14.6028 56.5669 14.0148 56.5669 13.2766C56.5669 12.5587 56.7247 11.9784 57.0403 11.5354C57.361 11.0875 57.8599 10.8634 58.537 10.8634C59.1938 10.8634 59.6876 11.0824 60.0185 11.5202C60.3545 11.958 60.5225 12.5434 60.5225 13.2766C60.5225 13.9842 60.357 14.5645 60.0261 15.0177C59.7003 15.4656 59.2039 15.6897 58.537 15.6897Z" fill="#8B888A"/>
<path d="M63.6371 8.00702H65.7143V6.17432H63.6371V8.00702ZM63.6371 17.3998H65.7143V9.15248H63.6371V17.3998Z" fill="#8B888A"/>
<path d="M67.0721 21.0657H69.1643V17.1024C69.4343 17.2704 69.7319 17.4002 70.0577 17.4918C70.3889 17.5834 70.7477 17.6293 71.1347 17.6293C71.8931 17.6293 72.5579 17.4384 73.1279 17.0566C73.6979 16.6747 74.1407 16.1554 74.4563 15.4987C74.7773 14.842 74.9375 14.1013 74.9375 13.2766C74.9375 12.4366 74.7749 11.6907 74.4491 11.0391C74.1281 10.3824 73.6751 9.86565 73.0895 9.48891C72.5039 9.11223 71.8169 8.92383 71.0279 8.92383C70.6001 8.92383 70.2083 8.98491 69.8519 9.10713C69.5003 9.22419 69.1847 9.39219 68.9051 9.61113V9.15291H67.0721V21.0657ZM70.7987 15.7813C70.1063 15.7813 69.6179 15.5522 69.3323 15.094C69.0473 14.6307 68.9051 14.0249 68.9051 13.2766C68.9051 12.5282 69.0449 11.9249 69.3251 11.4667C69.6101 11.0035 70.0757 10.7718 70.7225 10.7718C71.1857 10.7718 71.5649 10.8864 71.8601 11.1154C72.1607 11.3395 72.3821 11.6424 72.5243 12.0242C72.6671 12.4009 72.7385 12.8184 72.7385 13.2766C72.7385 13.7398 72.6695 14.1624 72.5321 14.5442C72.3947 14.9209 72.1835 15.2213 71.8985 15.4453C71.6135 15.6693 71.2469 15.7813 70.7987 15.7813Z" fill="#8B888A"/>
<path d="M78.7007 17.6293C79.7795 17.6293 80.6249 17.3875 81.2357 16.9038C81.8465 16.4202 82.1519 15.7558 82.1519 14.9107C82.1519 14.2693 81.9533 13.7628 81.5567 13.3911C81.1643 13.0195 80.4977 12.7114 79.5557 12.4671C78.9143 12.3042 78.4355 12.1718 78.1199 12.07C77.8097 11.9682 77.6033 11.8689 77.5013 11.7722C77.4047 11.6755 77.3567 11.5558 77.3567 11.4133C77.3567 11.174 77.4707 10.9908 77.6999 10.8634C77.9345 10.7362 78.2423 10.6853 78.6239 10.7107C79.4333 10.7718 79.8767 11.118 79.9529 11.7493L82.0757 11.3674C81.9689 10.6191 81.6023 10.026 80.9759 9.58821C80.3501 9.14529 79.5509 8.92383 78.5783 8.92383C77.5805 8.92383 76.7837 9.15801 76.1879 9.62637C75.5927 10.0947 75.2945 10.726 75.2945 11.5202C75.2945 12.1515 75.5009 12.6504 75.9131 13.0169C76.3253 13.3784 77.0357 13.6889 78.0437 13.9486C78.6395 14.1064 79.0769 14.2336 79.3571 14.3304C79.6421 14.4271 79.8257 14.5264 79.9067 14.6282C79.9883 14.7249 80.0291 14.8548 80.0291 15.0177C80.0291 15.2773 79.9271 15.4809 79.7237 15.6286C79.5203 15.7711 79.2299 15.8424 78.8531 15.8424C78.3947 15.8424 78.0155 15.7329 77.7155 15.514C77.4203 15.2951 77.2289 14.9922 77.1425 14.6053L75.0197 14.926C75.1571 15.7864 75.5441 16.4533 76.1807 16.9267C76.8221 17.3951 77.6621 17.6293 78.7007 17.6293Z" fill="#8B888A"/>
<path d="M85.9835 17.6445C86.5793 17.6445 87.0983 17.5452 87.5417 17.3467C87.9845 17.1481 88.3559 16.8834 88.6565 16.5525V17.4001H90.4889V9.15283H88.3967V13.3376C88.3967 13.8467 88.3379 14.259 88.2209 14.5747C88.1093 14.8852 87.9641 15.1219 87.7859 15.2848C87.6077 15.4427 87.4169 15.5496 87.2129 15.6056C87.0095 15.6616 86.8187 15.6896 86.6405 15.6896C86.1977 15.6896 85.8539 15.5903 85.6097 15.3918C85.3703 15.1932 85.1969 14.9463 85.0901 14.6511C84.9833 14.3557 84.9197 14.0631 84.8993 13.7728C84.8789 13.4776 84.8687 13.2358 84.8687 13.0474V9.15283H82.7609V13.7805C82.7609 13.9179 82.7711 14.1369 82.7915 14.4372C82.8119 14.7376 82.8707 15.0711 82.9673 15.4376C83.0639 15.799 83.2241 16.1478 83.4485 16.4838C83.6777 16.8198 83.9957 17.0972 84.4031 17.3161C84.8099 17.535 85.3373 17.6445 85.9835 17.6445Z" fill="#8B888A"/>
<path d="M91.6919 17.3999H93.7841V12.4057C93.7841 11.9323 93.9137 11.548 94.1735 11.2526C94.4381 10.9523 94.7867 10.8021 95.2199 10.8021C95.6729 10.8021 96.0269 10.9549 96.2813 11.2603C96.5405 11.5607 96.6707 11.9832 96.6707 12.5279V17.3999H98.7479V12.4057C98.7479 11.9323 98.8775 11.548 99.1373 11.2526C99.4019 10.9523 99.7505 10.8021 100.183 10.8021C100.637 10.8021 100.99 10.9549 101.244 11.2603C101.504 11.5607 101.634 11.9832 101.634 12.5279V17.3999H103.711V11.9781C103.711 11.077 103.469 10.349 102.986 9.7941C102.507 9.23412 101.797 8.9541 100.855 8.9541C100.326 8.9541 99.8399 9.06864 99.3965 9.29772C98.9537 9.52686 98.6003 9.83994 98.3351 10.237C98.1215 9.85014 97.8161 9.53958 97.4189 9.3054C97.0217 9.07122 96.5279 8.9541 95.9375 8.9541C95.4383 8.9541 94.9805 9.0534 94.5629 9.25194C94.1453 9.44538 93.7991 9.71268 93.5243 10.0537V9.15264H91.6919V17.3999Z" fill="#8B888A"/>
<path d="M12.9371 0C6.30971 0 0.937134 5.37258 0.937134 12C7.56455 12 12.9371 6.62742 12.9371 0Z" fill="#8B888A"/>
<path d="M12.9371 24C19.5646 24 24.9371 18.6274 24.9371 12C18.3097 12 12.9371 17.3726 12.9371 24Z" fill="#8B888A"/>
<path d="M12.9371 0C19.5646 0 24.9371 5.37258 24.9371 12C18.3097 12 12.9371 6.62742 12.9371 0Z" fill="#8B888A"/>
<path d="M12.9371 24C6.30971 24 0.937133 18.6274 0.937134 12C7.56455 12 12.9371 17.3726 12.9371 24Z" fill="#8B888A"/>
</g>
<defs>
<clipPath id="clip0_15_521">
<rect width="103.2" height="24" fill="white" transform="translate(0.937134)"/>
</clipPath>
</defs>
</svg>