<svg xmlns="http://www.w3.org/2000/svg" width="81" height="76" viewBox="0 0 81 76" fill="none">
<path d="M79.09 15.3073C78.7976 14.5642 78.4697 13.8417 78.1068 13.1403C75.8767 15.524 73.9394 17.67 72.531 19.3282C72.9864 20.8576 73.2144 22.4722 73.1961 24.1313C73.1481 28.4795 71.4292 32.4936 68.3559 35.434C65.8726 37.81 63.2548 40.1713 60.723 42.4546C58.0911 44.8285 55.3695 47.283 52.748 49.7982C51.8924 50.6191 51.0244 51.4337 50.1053 52.2961C46.742 55.4522 43.2965 58.6855 40.3643 62.3083C38.2565 59.7044 35.8836 57.3021 33.4668 54.9846C35.993 52.3903 38.2312 50.2309 40.3072 48.7545C40.7019 48.4739 41.2023 48.3689 41.6306 48.1709C41.7733 48.1051 41.9138 48.039 42.0511 47.9734C42.6003 47.7108 43.099 47.4531 43.4929 47.2221C44.0336 46.9051 44.5926 46.5629 45.2054 46.4382C45.2359 46.4321 45.2656 46.4237 45.2963 46.4188C45.3504 46.4099 45.405 46.3998 45.4598 46.3888C45.5695 46.3665 45.6801 46.3403 45.7914 46.3105C45.8661 46.2906 45.941 46.2684 46.0163 46.2454C47.2254 45.8752 48.4495 45.1457 48.9239 44.8465C49.0553 44.7636 49.1291 44.7137 49.1291 44.7137C49.1837 44.6823 49.2296 44.649 49.2682 44.6151C49.4449 44.4583 49.4632 44.281 49.4369 44.1418C49.4231 44.0685 49.398 44.0048 49.3749 43.9624C49.1678 43.5843 48.5087 43.8063 48.5087 43.8063C47.6131 44.135 46.7385 44.5026 46.1866 44.616C44.0847 45.0478 44.2067 44.613 44.2067 44.613C44.2315 44.5584 44.2775 44.4984 44.3407 44.434C44.5935 44.1756 45.1227 43.8424 45.6892 43.4777C45.8307 43.3865 45.9748 43.2933 46.1172 43.1986C46.4021 43.0096 46.6814 42.8154 46.925 42.6209C47.0337 42.5342 47.1408 42.4452 47.249 42.3573C47.8117 41.901 48.3689 41.4367 48.937 40.9892C49.2999 40.7036 49.8326 40.2423 49.7907 39.7452C49.7811 39.6304 49.7408 39.5139 49.6607 39.397C49.3186 38.898 48.4459 39.4788 48.4459 39.4788C47.3502 40.5234 46.4199 41.0564 45.7487 41.5828C44.9409 42.2159 44.489 42.4661 44.235 42.5499C44.1172 42.5888 44.0415 42.5923 43.994 42.5809C43.9654 42.5741 43.9467 42.5619 43.9345 42.5495C43.9129 42.5274 43.9113 42.504 43.9113 42.504C43.9033 42.4679 43.9235 42.4112 43.9626 42.3409C44.2079 41.8998 45.2776 40.8659 45.9087 40.2172C46.7308 39.3727 47.5541 38.5304 48.3867 37.6962C48.5005 37.5819 48.616 37.4659 48.6947 37.3251C48.7121 37.2942 48.7257 37.2595 48.7374 37.2239C48.7409 37.2131 48.7439 37.2021 48.747 37.1909C48.7542 37.1646 48.7596 37.1374 48.7641 37.1098C48.7662 37.0967 48.769 37.084 48.7704 37.0707C48.7742 37.0369 48.7753 37.0023 48.7749 36.9676C48.7746 36.943 48.7721 36.9189 48.7697 36.894C48.7685 36.8825 48.7674 36.8713 48.766 36.8601C48.7536 36.7673 48.7261 36.6778 48.6837 36.5979C48.6348 36.5056 48.5677 36.4264 48.4778 36.3774C48.0102 36.1237 47.5376 36.4391 47.1984 36.7539C46.4152 37.4807 45.5381 38.1041 44.769 38.8498C42.7645 40.7933 42.4916 40.6535 42.3676 40.5822C42.2238 40.4995 44.2517 37.8958 44.9461 37.0976C44.9922 37.0444 45.0412 36.9777 45.0986 36.9081C45.4231 36.5131 45.7911 36.1008 45.8745 35.5823C45.9305 35.233 45.9162 34.6534 45.4397 34.6389C45.1687 34.6307 44.7448 34.8408 44.564 35.0468C43.3432 36.4379 42.5457 37.5858 41.8171 38.1994C40.8359 39.0257 39.3436 40.8945 38.783 40.7127C38.2692 40.5462 38.0035 40.0193 37.8915 39.5596L37.8913 39.5589C37.8365 39.3335 37.8185 39.126 37.8271 38.9838C37.8276 38.9765 37.8283 38.97 37.8288 38.9632C37.8323 38.9212 37.8374 38.8837 37.8456 38.8566C37.9279 38.5839 37.9607 38.1329 37.9227 37.6714C37.9206 37.6449 37.9178 37.6184 37.9152 37.5919C37.8953 37.3923 37.8618 37.1932 37.8128 37.0065C37.7175 36.6419 37.5643 36.3273 37.3382 36.1645C36.7914 35.7709 36.6738 36.656 36.5993 37.2447C36.5887 37.3288 36.5789 37.4069 36.5688 37.4743C36.4884 38.0139 35.8322 39.0515 35.8465 39.4481C35.8538 39.6451 35.8533 39.8401 35.8475 40.0326C35.8472 40.0387 35.847 40.0448 35.8468 40.0509C35.7627 42.6713 34.566 44.8076 34.5426 44.8484C33.7636 46.2124 28.9741 51.4243 24.0132 56.4074C24.487 56.8549 24.962 57.3009 25.4297 57.74C25.4444 57.754 25.4596 57.7681 25.4746 57.7821C25.9305 58.2099 26.3881 58.6393 26.8452 59.0706C26.8559 59.0807 26.8667 59.091 26.8773 59.1011C27.3374 59.5354 27.7973 59.9717 28.2543 60.4105C31.6478 63.6669 34.9001 67.0553 37.1538 70.7451L40.3646 76.002L43.5753 70.7451C46.4415 66.0525 50.9218 61.8482 55.2547 57.7819C56.1482 56.9434 57.0722 56.0766 57.9576 55.2269C60.4955 52.792 63.1733 50.3769 65.7629 48.0411C68.3351 45.7211 70.9951 43.3223 73.5583 40.8695C75.8551 38.672 77.6459 36.0663 78.881 33.1254C80.0676 30.2998 80.6866 27.3013 80.7206 24.2131C80.7539 21.1387 80.2054 18.1418 79.09 15.3073Z" fill="black" fill-opacity="0.5"/>
<path d="M26.136 48.06C24.0945 46.1502 22.0211 44.2771 19.9993 42.4537C17.4675 40.1702 14.8497 37.8092 12.3664 35.4332C9.29311 32.4925 7.57425 28.4784 7.52622 24.1305C7.47843 19.8069 9.0968 15.7813 12.0829 12.7953C15.0067 9.87125 19.0765 8.24234 23.2804 8.24234C23.9963 8.24234 24.7165 8.28966 25.435 8.38572C25.9558 8.4553 26.4621 8.55157 26.9834 8.68019C27.1783 8.72822 27.3547 8.77531 27.5229 8.82404C27.7342 8.88519 27.9535 8.95477 28.1735 9.03068C28.2997 9.07425 28.4251 9.11923 28.5493 9.16609C28.9489 9.31673 29.351 9.48962 29.7445 9.68009C32.6379 11.0806 35.1573 13.4765 37.6973 16.0166L40.3575 18.6768L43.0177 16.0166C45.5577 13.4765 48.0774 11.0806 50.9705 9.68009C51.364 9.48962 51.7663 9.31673 52.166 9.16609C52.2899 9.11923 52.4152 9.07425 52.541 9.03091C52.7617 8.955 52.9808 8.88542 53.1921 8.82404C53.3605 8.77531 53.537 8.72822 53.7321 8.68019C54.2532 8.55157 54.7594 8.4553 55.2802 8.38572C58.0482 8.01532 60.8319 8.37165 63.347 9.35795C61.4513 11.1333 59.6586 12.6634 57.939 13.8863C57.3355 14.3155 56.5704 14.476 55.9158 14.7784C55.6975 14.8792 55.4829 14.9801 55.2729 15.0804C54.4333 15.4819 53.6707 15.876 53.0689 16.229C52.2421 16.7138 51.3877 17.2369 50.4504 17.4278C50.404 17.4372 50.3583 17.4499 50.3114 17.4578C50.2287 17.4714 50.1453 17.4869 50.0617 17.5038C49.8942 17.5377 49.725 17.5778 49.555 17.6232C49.4406 17.6539 49.3258 17.6877 49.211 17.7228C47.3624 18.2886 45.4907 19.404 44.7656 19.8617C44.5646 19.9885 44.4519 20.0649 44.4519 20.0649C44.3685 20.1129 44.298 20.1635 44.2392 20.2157C43.9691 20.4554 43.9412 20.7265 43.9813 20.9392C44.0024 21.0512 44.0406 21.1486 44.0762 21.2135C44.3929 21.7917 45.4003 21.452 45.4003 21.452C46.7696 20.9495 48.1067 20.3875 48.9508 20.2141C52.1643 19.5539 51.9779 20.2188 51.9779 20.2188C51.9399 20.3022 51.8696 20.3938 51.7731 20.4927C51.3868 20.8876 50.5773 21.397 49.7114 21.9548C49.495 22.0942 49.275 22.2368 49.0571 22.3814C48.6214 22.6705 48.1943 22.9675 47.8218 23.2646C47.6555 23.3972 47.4919 23.5333 47.3265 23.6673C46.466 24.365 45.6144 25.0749 44.7457 25.7592C44.191 26.1959 43.3764 26.9013 43.4406 27.6611C43.4553 27.8365 43.5169 28.0148 43.6395 28.1933C44.1626 28.9561 45.4966 28.0684 45.4966 28.0684C47.1717 26.4714 48.5942 25.6561 49.6206 24.8516C50.8554 23.8836 51.5468 23.5012 51.9348 23.3729C52.1149 23.3133 52.2304 23.308 52.3033 23.3253C52.3471 23.3358 52.3756 23.3543 52.3944 23.3733C52.4272 23.4068 52.4298 23.4429 52.4298 23.4429C52.4419 23.4982 52.4113 23.5846 52.3515 23.6922C51.9764 24.3664 50.3409 25.9473 49.376 26.939C48.1193 28.2306 46.8605 29.5182 45.5872 30.7933C45.4129 30.9679 45.2366 31.1454 45.1164 31.3607C45.0899 31.4081 45.0693 31.461 45.051 31.5156C45.0456 31.5322 45.0409 31.5489 45.0362 31.566C45.0252 31.606 45.0168 31.6475 45.01 31.6899C45.0067 31.71 45.0027 31.7293 45.0004 31.7499C44.9948 31.8016 44.9931 31.8544 44.9936 31.9073C44.9941 31.9448 44.9978 31.982 45.0013 32.0195C45.003 32.0369 45.0048 32.0542 45.0072 32.0715C45.0262 32.2135 45.0679 32.3503 45.133 32.4724C45.208 32.6134 45.3103 32.7348 45.4479 32.8093C46.1629 33.1972 46.8851 32.7149 47.4038 32.2337C48.6012 31.1227 49.9424 30.1694 51.1183 29.0292C54.1831 26.0577 54.6006 26.2716 54.7899 26.3805C55.0098 26.507 51.9092 30.4881 50.8475 31.7082C50.7767 31.7895 50.7017 31.8914 50.6143 31.9977C50.1184 32.6015 49.5554 33.2321 49.4282 34.0249C49.3427 34.5588 49.3643 35.4451 50.0931 35.4674C50.5075 35.48 51.1555 35.1586 51.432 34.8437C53.2985 32.717 54.5179 30.9618 55.6318 30.0237C57.1322 28.7603 59.4138 25.903 60.2708 26.1809C61.0565 26.4358 61.4625 27.2412 61.6338 27.9438L61.634 27.9448C61.7179 28.2894 61.7455 28.6066 61.732 28.824C61.7313 28.835 61.7303 28.8451 61.7294 28.8556C61.724 28.9196 61.716 28.977 61.7036 29.0184C61.5778 29.4355 61.5277 30.1249 61.5855 30.8306C61.5888 30.8711 61.593 30.9114 61.5972 30.9522C61.6277 31.2574 61.679 31.562 61.7538 31.8473C61.8997 32.4047 62.1337 32.8859 62.4795 33.1347C63.3157 33.7365 63.4951 32.3831 63.6092 31.483C63.6256 31.3544 63.6404 31.2349 63.6558 31.1318C63.7786 30.307 64.782 28.7204 64.76 28.1141C64.749 27.8129 64.7497 27.5149 64.7586 27.2204C64.7588 27.211 64.7593 27.2016 64.7597 27.1923C64.8886 23.1859 66.7181 19.9196 66.7537 19.8571C67.0542 19.3309 67.7458 18.4294 68.7331 17.2538C68.7237 17.2214 68.7155 17.1884 68.7059 17.1559C70.1144 15.4976 72.0516 13.3517 74.2817 10.9679C74.2925 10.9885 74.3023 11.0096 74.3131 11.0305C74.78 10.53 75.2595 10.0191 75.7515 9.49899C75.1946 8.79311 74.5959 8.117 73.9532 7.47438C73.4894 7.01051 73.0042 6.57123 72.5035 6.15211C72.5042 6.15141 72.5049 6.15048 72.5059 6.14978C72.4456 6.09917 72.3838 6.05044 72.3229 6.00054C72.2629 5.95134 72.2029 5.90191 72.1423 5.85342C71.9787 5.72199 71.8136 5.5929 71.6465 5.46615C71.6283 5.45233 71.6105 5.43804 71.5924 5.42421C71.3933 5.27404 71.1916 5.12786 70.988 4.98449C70.9702 4.97184 70.9522 4.95988 70.9343 4.94747C70.7488 4.81768 70.5614 4.69116 70.3723 4.567C70.3437 4.54825 70.3152 4.52975 70.2866 4.51124C70.0877 4.38192 69.8869 4.25541 69.684 4.13242C69.6793 4.12961 69.6749 4.12679 69.6702 4.12398C65.1411 1.38107 59.6832 0.204778 54.2827 0.927287C53.4995 1.03201 52.7081 1.1824 51.9303 1.37428C51.6365 1.44667 51.3643 1.51954 51.0979 1.59661C50.7681 1.6922 50.4297 1.79949 50.0917 1.91593C49.8947 1.98387 49.7 2.05392 49.5128 2.12444C48.9018 2.35473 48.2892 2.61782 47.6922 2.90691C44.8929 4.26197 42.5548 6.09448 40.3573 8.12027C38.1597 6.09471 35.8217 4.26197 33.0223 2.90691C32.4254 2.61805 31.8127 2.35473 31.202 2.12467C31.0148 2.05415 30.8201 1.9841 30.6224 1.91593C30.2848 1.79973 29.9465 1.69243 29.6166 1.59684C29.3505 1.51977 29.0783 1.44715 28.7845 1.37452C28.0067 1.18265 27.2153 1.03224 26.4321 0.927516C19.184 -0.0419207 11.8306 2.40533 6.76153 7.47438C4.52068 9.71523 2.79477 12.3501 1.63136 15.3062C0.515965 18.1408 -0.0324837 21.1376 0.00148639 24.2132C0.0354565 27.3014 0.654399 30.3002 1.84101 33.1255C3.07612 36.0664 4.86695 38.672 7.16379 40.8696C9.72701 43.3222 12.387 45.7212 14.9591 48.0412C16.9315 49.8201 18.9526 51.6461 20.9264 53.4907C22.783 51.6114 24.5869 49.7297 26.136 48.06Z" fill="black" fill-opacity="0.5"/>
</svg>