<svg xmlns="http://www.w3.org/2000/svg" width="102" height="111" viewBox="0 0 102 111" fill="none">
<g clip-path="url(#clip0_0_3653)">
<path d="M139.431 0.360352H-27.5695V110.36H139.431V0.360352Z" fill="#22c55e"/>
<path d="M55.9323 92.7619C76.8381 92.7619 93.7857 76.0174 93.7857 55.3619C93.7857 34.7065 76.8381 17.9619 55.9323 17.9619C35.0265 17.9619 18.079 34.7065 18.079 55.3619C18.079 76.0174 35.0265 92.7619 55.9323 92.7619Z" fill="black" fill-opacity="0.5"/>
<path d="M67.0648 86.1596C84.2814 86.1596 98.2381 72.3699 98.2381 55.3596C98.2381 38.3492 84.2814 24.5596 67.0648 24.5596C49.8483 24.5596 35.8915 38.3492 35.8915 55.3596C35.8915 72.3699 49.8483 86.1596 67.0648 86.1596Z" fill="#22c55e"/>
</g>
<defs>
<clipPath id="clip0_0_3653">
<rect width="101" height="110" fill="white" transform="translate(0.430542 0.360352)"/>
</clipPath>
</defs>
</svg>