<svg xmlns="http://www.w3.org/2000/svg" width="90" height="102" viewBox="0 0 90 102" fill="none">
<path d="M76.8153 18.8223C75.6146 17.6108 74.3626 16.4821 73.0669 15.4361C65.8582 23.1663 60.2767 29.5965 58.9907 31.8683C58.9313 31.9733 55.8864 37.4584 55.6722 44.1864C55.6716 44.2022 55.6708 44.2179 55.6703 44.2337C55.6555 44.7283 55.6546 45.2287 55.6727 45.7345C55.709 46.7526 54.0394 49.4171 53.8349 50.8022C53.8093 50.9753 53.7845 51.1757 53.7574 51.3919C53.5674 52.9037 53.2684 55.1763 51.8769 54.1655C51.3017 53.7478 50.912 52.9397 50.669 52.0038C50.5446 51.5244 50.4592 51.0133 50.4085 50.5007C50.4018 50.4326 50.3948 50.3648 50.3892 50.2967C50.2927 49.1117 50.3761 47.954 50.5856 47.2536C50.6062 47.1841 50.6196 47.0876 50.6286 46.9801C50.63 46.9626 50.6316 46.9454 50.6328 46.9268C50.6551 46.5618 50.6093 46.029 50.4695 45.4502C50.4693 45.4497 50.4693 45.4488 50.4693 45.4488C50.1845 44.2689 49.5085 42.9162 48.2008 42.4883C46.7747 42.0213 42.9772 46.8199 40.4802 48.9417C38.6262 50.5171 36.5965 53.4646 33.49 57.0363C33.03 57.5652 31.9515 58.1048 31.2616 58.0837C30.0487 58.0462 30.0127 56.5583 30.155 55.6613C30.3667 54.3299 31.3037 53.271 32.1292 52.2568C32.2748 52.0784 32.3992 51.9072 32.517 51.7707C34.2842 49.7216 39.4447 43.036 39.0784 42.8238C38.7632 42.6408 38.0686 42.2814 32.9675 47.272C31.0103 49.1868 28.7783 50.7878 26.7854 52.6534C25.922 53.4615 24.72 54.2716 23.5299 53.62C23.3006 53.4945 23.1307 53.291 23.0058 53.0543C22.8975 52.8491 22.8283 52.6194 22.7965 52.3813C22.7926 52.3523 22.7896 52.323 22.7868 52.294C22.7809 52.2307 22.7745 52.1685 22.7737 52.1054C22.7728 52.0162 22.7753 51.9278 22.7848 51.8411C22.7885 51.8068 22.7954 51.7741 22.8007 51.7404C22.8119 51.6691 22.8258 51.5993 22.8442 51.5321C22.8521 51.5034 22.8599 51.4752 22.8688 51.4473C22.8989 51.3556 22.9335 51.2669 22.9776 51.1872C23.1779 50.8258 23.4716 50.5277 23.7615 50.2344C25.8805 48.0927 27.9755 45.9304 30.0671 43.7617C31.6734 42.0962 34.3952 39.4414 35.0195 38.309C35.1191 38.1286 35.1704 37.983 35.1501 37.8904C35.1501 37.8904 35.1459 37.8299 35.0912 37.7736C35.06 37.7413 35.0123 37.7105 34.9395 37.6928C34.8184 37.6635 34.6259 37.6726 34.326 37.7725C33.6802 37.9878 32.5298 38.6301 30.4744 40.2557C28.766 41.6067 26.3985 42.9758 23.6105 45.658C23.6105 45.658 21.39 47.1489 20.5197 45.8677C20.3157 45.5676 20.2133 45.2684 20.1888 44.9737C20.082 43.6975 21.4377 42.5131 22.3608 41.7795C23.8064 40.6303 25.224 39.4383 26.6562 38.2668C26.9313 38.0416 27.2039 37.813 27.4806 37.5901C28.1004 37.0913 28.8112 36.5923 29.5365 36.107C29.8992 35.8644 30.2652 35.6248 30.6256 35.3907C32.067 34.4536 33.4141 33.5985 34.0571 32.9351C34.2181 32.7693 34.3347 32.6153 34.398 32.4754C34.398 32.4754 34.7082 31.3588 29.3597 32.4675C27.9551 32.7586 25.7295 33.7026 23.4507 34.5465C23.4507 34.5465 21.7739 35.1171 21.2466 34.146C21.1875 34.037 21.1239 33.8735 21.0887 33.6855C21.0218 33.328 21.0681 32.8726 21.5178 32.4704C21.6157 32.3825 21.7328 32.2975 21.8718 32.217C21.8718 32.217 22.0595 32.089 22.394 31.8759C23.6008 31.1072 26.7162 29.2343 29.7929 28.284C29.984 28.2249 30.1748 28.1683 30.3653 28.1168C30.6485 28.0402 30.93 27.973 31.2089 27.9158C31.3484 27.8874 31.487 27.8615 31.6248 27.8384C31.7029 27.8255 31.7788 27.8041 31.8564 27.7883C33.416 27.468 34.8382 26.5895 36.2143 25.7752C37.2161 25.1824 38.4854 24.5207 39.883 23.8466C40.2322 23.678 40.5896 23.5085 40.9528 23.3394C42.0424 22.8316 43.3159 22.5619 44.3204 21.8411C50.852 17.1545 58.0132 9.78976 66.4122 0.94248C66.4499 0.902792 66.403 0.840045 66.3553 0.866785L55.7029 6.81852C41.0197 3.20186 24.8835 7.13405 13.3595 18.6154C-4.29233 36.2019 -4.47757 65.0538 12.9575 82.8593C15.9265 85.8913 19.2124 88.4119 22.7084 90.4221C30.7274 82.0528 37.5285 74.4209 38.8402 72.1036C38.8884 72.0183 41.3673 67.553 41.542 62.0758C41.5425 62.0628 41.5431 62.0502 41.5433 62.0372C41.5553 61.6347 41.5562 61.2274 41.5414 60.8153C41.5118 59.9864 42.8712 57.8174 43.0375 56.6898C43.0581 56.5488 43.0784 56.3858 43.1005 56.2099C43.255 54.979 43.4986 53.1291 44.6314 53.9519C45.0995 54.2919 45.4167 54.9497 45.6145 55.7117C45.7158 56.1018 45.7852 56.5181 45.8265 56.9352C45.8321 56.9909 45.8377 57.0458 45.8421 57.1013C45.9208 58.0659 45.8527 59.0085 45.6823 59.5785C45.6653 59.6351 45.6547 59.7136 45.6474 59.8012C45.646 59.8155 45.6449 59.8293 45.6438 59.8445C45.6257 60.1418 45.663 60.5755 45.7766 61.0467C45.7769 61.0473 45.7768 61.0478 45.7768 61.0478C46.0087 62.0085 46.5591 63.1096 47.6236 63.4581C48.7846 63.8381 51.8761 59.9318 53.9089 58.2047C55.4183 56.9223 57.0706 54.5227 59.5994 51.6151C59.9738 51.1847 60.852 50.7453 61.4135 50.7628C62.4008 50.7932 62.4303 52.0044 62.3143 52.7345C62.1419 53.8185 61.3792 54.6803 60.7072 55.5059C60.5886 55.6511 60.4874 55.7905 60.3914 55.9016C58.9528 57.5699 54.7519 63.0122 55.0498 63.1851C55.3065 63.334 55.8722 63.6267 60.0246 59.5642C61.6177 58.0054 63.4349 56.7019 65.0573 55.1833C65.76 54.5255 66.7386 53.866 67.7074 54.3963C67.8941 54.4985 68.0327 54.664 68.1343 54.8571C68.2224 55.024 68.2788 55.2109 68.3047 55.4051C68.3078 55.4288 68.3106 55.4524 68.3128 55.4763C68.3175 55.5279 68.3228 55.5785 68.3234 55.63C68.3242 55.7027 68.322 55.7747 68.3142 55.8454C68.3111 55.8735 68.3055 55.8997 68.3014 55.9273C68.2921 55.9853 68.2807 56.0418 68.2659 56.0967C68.2595 56.1201 68.2534 56.1429 68.2458 56.1657C68.2213 56.2403 68.1931 56.3126 68.1571 56.3774C67.9942 56.6718 67.7549 56.9141 67.5189 57.1531C65.7941 58.8965 64.0882 60.6569 62.3854 62.4225C61.0779 63.7784 58.8621 65.9396 58.3539 66.8614C58.273 67.0083 58.2311 67.1265 58.2476 67.202C58.2476 67.202 58.2512 67.2512 58.2956 67.2971C58.321 67.3236 58.3597 67.3486 58.4191 67.363C58.5179 67.3869 58.6744 67.3796 58.9185 67.2982C59.444 67.1229 60.3808 66.6002 62.054 65.2767C63.4446 64.1767 65.372 63.0623 67.6416 60.8789C67.6416 60.8789 69.4493 59.6652 70.1579 60.7084C70.3236 60.9524 70.4072 61.1962 70.427 61.436C70.5138 62.4749 69.4102 63.439 68.6587 64.0362C67.4818 64.9719 66.328 65.9421 65.1619 66.896C64.9379 67.0793 64.7161 67.2656 64.4907 67.4468C63.9861 67.853 63.4075 68.2589 62.817 68.6544C62.5218 68.852 62.2236 69.0468 61.9301 69.2373C60.7568 70.0001 59.6602 70.6962 59.1369 71.2363C59.0058 71.3712 58.911 71.4964 58.8593 71.6107C58.8593 71.6107 58.6069 72.5196 62.9609 71.6172C64.1044 71.3802 65.9162 70.6118 67.7713 69.9247C67.7713 69.9247 69.1363 69.46 69.5656 70.2506C69.6136 70.3393 69.6655 70.4722 69.6939 70.6256C69.7483 70.9166 69.7107 71.2873 69.3447 71.6146C69.2649 71.6861 69.1695 71.7554 69.0565 71.821C69.0565 71.821 68.9036 71.9251 68.6311 72.0985C67.6486 72.7242 65.1126 74.249 62.608 75.0227C62.4524 75.0706 62.297 75.117 62.1419 75.1587C61.9115 75.2209 61.6821 75.2758 61.4553 75.3222C61.3418 75.3453 61.2288 75.3664 61.1167 75.385C61.0531 75.3957 60.9912 75.4128 60.9284 75.4258C59.6586 75.6864 58.5006 76.4017 57.3806 77.0645C56.5652 77.5473 55.5319 78.0857 54.3943 78.6346C54.11 78.772 53.8191 78.9096 53.5231 79.0475C52.6363 79.461 51.5993 79.6803 50.7817 80.2671C44.4233 84.8295 37.3324 92.5085 28.6611 101.642C28.5588 101.75 28.6902 101.918 28.8171 101.841C30.858 100.611 36.0414 97.5905 38.8745 95.9433C52.3353 97.7931 66.4664 93.4984 76.8136 83.058C94.3952 65.3192 94.3952 36.5602 76.8153 18.8223Z" fill="black" fill-opacity="0.5"/>
</svg>