<svg xmlns="http://www.w3.org/2000/svg" width="40" height="40" viewBox="0 0 43 35" fill="none">
<path d="M28.829 14.5861C28.829 15.0692 28.6857 15.5416 28.4173 15.9433C28.1488 16.3451 27.7673 16.6582 27.3209 16.8431C26.8745 17.028 26.3833 17.0764 25.9094 16.9821C25.4355 16.8879 25.0002 16.6552 24.6585 16.3135C24.3169 15.9719 24.0842 15.5366 23.9899 15.0627C23.8957 14.5888 23.9441 14.0976 24.129 13.6512C24.3139 13.2048 24.627 12.8232 25.0287 12.5548C25.4305 12.2863 25.9028 12.1431 26.386 12.1431C27.0339 12.1431 27.6553 12.4005 28.1135 12.8586C28.5716 13.3168 28.829 13.9381 28.829 14.5861Z" fill="#22C55E"/>
<path d="M19.056 14.5861C19.056 15.0692 18.9128 15.5416 18.6443 15.9433C18.3759 16.3451 17.9943 16.6582 17.5479 16.8431C17.1015 17.028 16.6103 17.0764 16.1364 16.9821C15.6625 16.8879 15.2272 16.6552 14.8856 16.3135C14.5439 15.9719 14.3113 15.5366 14.217 15.0627C14.1227 14.5888 14.1711 14.0976 14.356 13.6512C14.5409 13.2048 14.854 12.8232 15.2558 12.5548C15.6575 12.2863 16.1299 12.1431 16.613 12.1431C17.261 12.1431 17.8824 12.4005 18.3405 12.8586C18.7987 13.3168 19.056 13.9381 19.056 14.5861Z" fill="#22C55E"/>
<path d="M42.8813 18.783C43.0377 17.9345 43.0377 17.0646 42.8813 16.216C42.6334 14.778 41.9875 13.4382 41.0167 12.3487C40.046 11.2592 38.7893 10.4635 37.3893 10.052C36.3584 7.89697 34.9026 5.97245 33.1093 4.39404C31.0648 2.59932 28.632 1.303 26.002 0.606894C23.3721 -0.0892149 20.6165 -0.166165 17.9518 0.382086C15.2871 0.930338 12.7858 2.08886 10.6442 3.76669C8.50271 5.44451 6.77929 7.59594 5.60931 10.052C4.20776 10.4607 2.94946 11.2555 1.97828 12.3455C1.00709 13.4355 0.362192 14.7768 0.117312 16.216C-0.0391039 17.0646 -0.0391039 17.9345 0.117312 18.783C0.36511 20.221 1.01091 21.5606 1.98147 22.6502C2.95202 23.7397 4.20848 24.5354 5.60831 24.947C6.7769 27.413 8.50349 29.5731 10.6514 31.2563C12.7993 32.9395 15.3095 34.0996 17.9834 34.6448C20.6572 35.19 23.4213 35.1052 26.0567 34.3973C28.6921 33.6894 31.1266 32.3777 33.1673 30.566C34.9435 28.9964 36.3857 27.0855 37.4083 24.947C38.8059 24.5345 40.0597 23.7381 41.0272 22.6485C41.9947 21.5588 42.6371 20.2196 42.8813 18.783ZM35.1813 21.389C34.9914 21.3793 34.8022 21.36 34.6143 21.331C34.2308 22.6112 33.6646 23.8295 32.9333 24.948C31.6871 26.8421 29.9899 28.3969 27.9941 29.4728C25.9984 30.5487 23.7666 31.1119 21.4993 31.1119C19.232 31.1119 17.0003 30.5487 15.0045 29.4728C13.0088 28.3969 11.3115 26.8421 10.0653 24.948C9.33401 23.8295 8.76785 22.6112 8.38431 21.331C8.19642 21.36 8.00717 21.3793 7.81731 21.389C6.78589 21.389 5.7967 20.9793 5.06737 20.25C4.33804 19.5207 3.92831 18.5315 3.92831 17.5C3.92831 16.4686 4.33804 15.4794 5.06737 14.7501C5.7967 14.0208 6.78589 13.611 7.81731 13.611C8.00717 13.6207 8.19642 13.6401 8.38431 13.669C8.76785 12.3888 9.33401 11.1706 10.0653 10.052C11.3115 8.15798 13.0088 6.60317 15.0045 5.52729C17.0003 4.45142 19.232 3.88818 21.4993 3.88818C23.7666 3.88818 25.9984 4.45142 27.9941 5.52729C29.9899 6.60317 31.6871 8.15798 32.9333 10.052C33.6646 11.1706 34.2308 12.3888 34.6143 13.669C34.8022 13.6401 34.9914 13.6207 35.1813 13.611C36.2127 13.611 37.2019 14.0208 37.9312 14.7501C38.6606 15.4794 39.0703 16.4686 39.0703 17.5C39.0703 18.5315 38.6606 19.5207 37.9312 20.25C37.2019 20.9793 36.2127 21.389 35.1813 21.389ZM12.7043 21.389C13.4347 23.1182 14.6586 24.5937 16.2229 25.6311C17.7873 26.6685 19.6227 27.2217 21.4998 27.2217C23.3769 27.2217 25.2123 26.6685 26.7767 25.6311C28.341 24.5937 29.5649 23.1182 30.2953 21.389H12.7043Z" fill="#22C55E"/>
</svg>