<svg xmlns="http://www.w3.org/2000/svg" width="40" height="40" viewBox="0 0 39 38" fill="none">
<path d="M11.54 21.4162L17.672 15.4412L2.50104 0.76416C1.70945 1.53418 1.08023 2.45506 0.650586 3.47238C0.220938 4.4897 -0.000427246 5.58283 -0.000427246 6.68716C-0.000427246 7.79149 0.220938 8.88462 0.650586 9.90194C1.08023 10.9193 1.70945 11.8401 2.50104 12.6102L11.54 21.4162Z" fill="#22C55E"/>
<path d="M24.384 17.6001C27.621 19.0651 32.11 18.0191 35.346 14.6721C39.313 10.7001 40.149 4.9461 37.019 1.9131C33.991 -1.2249 28.249 -0.386901 24.282 3.5871C20.941 6.9341 19.897 11.4321 21.359 14.5701C16.765 19.2771 1 35.0701 1 35.0701L3.919 38.0001L18.329 23.5651L32.736 38.0001L35.659 35.0721L21.252 20.6371L24.384 17.6001Z" fill="#22C55E"/>
</svg>