<svg xmlns="http://www.w3.org/2000/svg" width="40" height="40" viewBox="0 0 36 34" fill="none">
<path d="M32.4 7.15807H27V3.57907C27.0003 3.10723 26.9072 2.63999 26.7261 2.20427C26.545 1.76855 26.2795 1.37296 25.9449 1.04029C25.6103 0.707622 25.2132 0.444443 24.7764 0.265916C24.3396 0.0873885 23.8718 -0.00296009 23.4 7.39557e-05H12.6C12.1282 -0.00296009 11.6604 0.0873885 11.2236 0.265916C10.7868 0.444443 10.3897 0.707622 10.0551 1.04029C9.72047 1.37296 9.45497 1.76855 9.27389 2.20427C9.09281 2.63999 8.99973 3.10723 9 3.57907V7.15807H3.6C3.12816 7.15504 2.66039 7.24539 2.22361 7.42392C1.78684 7.60244 1.38971 7.86562 1.05509 8.19829C0.720467 8.53096 0.45497 8.92655 0.27389 9.36227C0.0928108 9.79799 -0.000272977 10.2652 6.01296e-07 10.7371V30.4211C-0.000272977 30.8929 0.0928108 31.3602 0.27389 31.7959C0.45497 32.2316 0.720467 32.6272 1.05509 32.9599C1.38971 33.2925 1.78684 33.5557 2.22361 33.7342C2.66039 33.9128 3.12816 34.0031 3.6 34.0001H32.4C32.8718 34.0031 33.3396 33.9128 33.7764 33.7342C34.2132 33.5557 34.6103 33.2925 34.9449 32.9599C35.2795 32.6272 35.545 32.2316 35.7261 31.7959C35.9072 31.3602 36.0003 30.8929 36 30.4211V10.7371C36.0003 10.2652 35.9072 9.79799 35.7261 9.36227C35.545 8.92655 35.2795 8.53096 34.9449 8.19829C34.6103 7.86562 34.2132 7.60244 33.7764 7.42392C33.3396 7.24539 32.8718 7.15504 32.4 7.15807ZM12.6 3.57907H23.4V7.15807H12.6V3.57907ZM32.4 30.4211H3.6V26.8421H32.4V30.4211ZM32.4 21.4741H3.6V10.7371H9V14.3161H12.6V10.7371H23.4V14.3161H27V10.7371H32.4V21.4741Z" fill="#22C55E"/>
</svg>