<svg xmlns="http://www.w3.org/2000/svg" width="48" height="48" viewBox="0 0 48 48" fill="none">
<path d="M43.5906 34.4081V28.4812C43.5906 23.4163 39.4848 19.3104 34.4198 19.3104H31.6668C29.7969 19.3104 28.2811 17.7946 28.2811 15.9247V13.7578H18.926V15.9247C18.926 17.7946 17.4102 19.3104 15.5403 19.3104H9.89844" stroke="#FD7E14" stroke-width="2" stroke-miterlimit="10" stroke-linecap="round" stroke-linejoin="round"/>
<path d="M9.89844 28.082H16.9253C18.0124 30.6996 20.5925 32.5408 23.6035 32.5408C26.6144 32.5408 29.1945 30.6997 30.2817 28.082H32.0306C33.5717 28.082 34.821 29.3314 34.821 30.8725V34.4101" stroke="#FD7E14" stroke-width="2" stroke-miterlimit="10" stroke-linecap="round" stroke-linejoin="round"/>
<path d="M26.4062 7.13672V13.695" stroke="#FD7E14" stroke-width="2" stroke-miterlimit="10" stroke-linecap="round" stroke-linejoin="round"/>
<path d="M20.8047 13.695V7.13672" stroke="#FD7E14" stroke-width="2" stroke-miterlimit="10" stroke-linecap="round" stroke-linejoin="round"/>
<path d="M33.8906 34.4102H44.5315" stroke="#FD7E14" stroke-width="2" stroke-miterlimit="10" stroke-linecap="round" stroke-linejoin="round"/>
<path d="M43.1269 42.7922C43.1269 44.8918 41.4248 46.594 39.3251 46.594C37.2256 46.594 35.5234 44.8919 35.5234 42.7922C35.5234 40.6927 39.3251 36.1836 39.3251 36.1836C39.3251 36.1836 43.1269 40.6926 43.1269 42.7922Z" stroke="#FD7E14" stroke-width="2" stroke-miterlimit="10" stroke-linecap="round" stroke-linejoin="round"/>
<path d="M30.258 1.40234H16.9453V7.13682H30.258V1.40234Z" stroke="#FD7E14" stroke-width="2" stroke-miterlimit="10" stroke-linecap="round" stroke-linejoin="round"/>
<path d="M9.90023 15.5195H3.47656V31.8692H9.90023V15.5195Z" stroke="#FD7E14" stroke-width="2" stroke-miterlimit="10" stroke-linecap="round" stroke-linejoin="round"/>
</svg>