<svg xmlns="http://www.w3.org/2000/svg" width="48" height="48" viewBox="0 0 48 48" fill="none">
<path d="M32.8208 4.39844C29.4644 4.39844 26.3896 5.60022 24 7.59531C21.6105 5.60022 18.5356 4.39844 15.1793 4.39844C7.57256 4.39844 1.40625 10.5648 1.40625 18.1715C1.40625 21.4183 2.61019 24.3407 4.40906 26.7572C7.81866 31.3374 24 43.2581 24 43.2581C24 43.2581 40.1813 31.3374 43.5909 26.7571C45.3898 24.3406 46.5938 21.4182 46.5938 18.1714C46.5938 10.5648 40.4274 4.39844 32.8208 4.39844Z" stroke="#22c55e" stroke-width="2" stroke-miterlimit="10"/>
<path d="M13.8731 22.8053C16.9702 22.8053 19.4809 20.2947 19.4809 17.1976C19.4809 14.1005 16.9702 11.5898 13.8731 11.5898C10.7761 11.5898 8.26538 14.1005 8.26538 17.1976C8.26538 20.2947 10.7761 22.8053 13.8731 22.8053Z" stroke="#22c55e" stroke-width="2" stroke-miterlimit="10"/>
<path d="M20.8203 28.4957C20.1732 25.2503 17.3087 22.8047 13.8732 22.8047C9.96072 22.8047 6.78906 25.9763 6.78906 29.8888" stroke="#22c55e" stroke-width="2" stroke-miterlimit="10"/>
<path d="M34.1234 22.8053C37.2204 22.8053 39.7311 20.2947 39.7311 17.1976C39.7311 14.1005 37.2204 11.5898 34.1234 11.5898C31.0263 11.5898 28.5156 14.1005 28.5156 17.1976C28.5156 20.2947 31.0263 22.8053 34.1234 22.8053Z" stroke="#22c55e" stroke-width="2" stroke-miterlimit="10"/>
<path d="M27.1797 28.4958C27.8268 25.2504 30.6913 22.8047 34.1268 22.8047C38.0393 22.8047 41.211 25.9763 41.211 29.8888" stroke="#22c55e" stroke-width="2" stroke-miterlimit="10"/>
<path d="M23.9981 27.7428C27.0952 27.7428 29.6059 25.2322 29.6059 22.1351C29.6059 19.038 27.0952 16.5273 23.9981 16.5273C20.9011 16.5273 18.3904 19.038 18.3904 22.1351C18.3904 25.2322 20.9011 27.7428 23.9981 27.7428Z" stroke="#22c55e" stroke-width="2" stroke-miterlimit="10"/>
<path d="M31.0823 37.905V34.8263C31.0823 30.9138 27.9107 27.7422 23.9982 27.7422C20.0857 27.7422 16.9141 30.9138 16.9141 34.8263V37.905" stroke="#22c55e" stroke-width="2" stroke-miterlimit="10"/>
</svg>